<?xml version="1.0" encoding="utf-8"?>
<svg xmlns="http://www.w3.org/2000/svg" xmlns:xlink="http://www.w3.org/1999/xlink" width="600" height="400" viewBox="0 0 2400 1600">
<defs>
  <clipPath id="clip840">
    <rect x="0" y="0" width="2400" height="1600"/>
  </clipPath>
</defs>
<path clip-path="url(#clip840)" d="M0 1600 L2400 1600 L2400 0 L0 0  Z" fill="#ffffff" fill-rule="evenodd" fill-opacity="1"/>
<defs>
  <clipPath id="clip841">
    <rect x="480" y="0" width="1681" height="1600"/>
  </clipPath>
</defs>
<path clip-path="url(#clip840)" d="M328.087 1358.71 L2352.76 1358.71 L2352.76 123.472 L328.087 123.472  Z" fill="#ffffff" fill-rule="evenodd" fill-opacity="1"/>
<defs>
  <clipPath id="clip842">
    <rect x="328" y="123" width="2026" height="1236"/>
  </clipPath>
</defs>
<polyline clip-path="url(#clip842)" style="stroke:#000000; stroke-linecap:round; stroke-linejoin:round; stroke-width:2; stroke-opacity:0.1; fill:none" points="328.087,1358.71 328.087,123.472 "/>
<polyline clip-path="url(#clip842)" style="stroke:#000000; stroke-linecap:round; stroke-linejoin:round; stroke-width:2; stroke-opacity:0.1; fill:none" points="530.554,1358.71 530.554,123.472 "/>
<polyline clip-path="url(#clip842)" style="stroke:#000000; stroke-linecap:round; stroke-linejoin:round; stroke-width:2; stroke-opacity:0.1; fill:none" points="733.021,1358.71 733.021,123.472 "/>
<polyline clip-path="url(#clip842)" style="stroke:#000000; stroke-linecap:round; stroke-linejoin:round; stroke-width:2; stroke-opacity:0.1; fill:none" points="935.488,1358.71 935.488,123.472 "/>
<polyline clip-path="url(#clip842)" style="stroke:#000000; stroke-linecap:round; stroke-linejoin:round; stroke-width:2; stroke-opacity:0.1; fill:none" points="1137.95,1358.71 1137.95,123.472 "/>
<polyline clip-path="url(#clip842)" style="stroke:#000000; stroke-linecap:round; stroke-linejoin:round; stroke-width:2; stroke-opacity:0.1; fill:none" points="1340.42,1358.71 1340.42,123.472 "/>
<polyline clip-path="url(#clip842)" style="stroke:#000000; stroke-linecap:round; stroke-linejoin:round; stroke-width:2; stroke-opacity:0.1; fill:none" points="1542.89,1358.71 1542.89,123.472 "/>
<polyline clip-path="url(#clip842)" style="stroke:#000000; stroke-linecap:round; stroke-linejoin:round; stroke-width:2; stroke-opacity:0.1; fill:none" points="1745.36,1358.71 1745.36,123.472 "/>
<polyline clip-path="url(#clip842)" style="stroke:#000000; stroke-linecap:round; stroke-linejoin:round; stroke-width:2; stroke-opacity:0.1; fill:none" points="1947.82,1358.71 1947.82,123.472 "/>
<polyline clip-path="url(#clip842)" style="stroke:#000000; stroke-linecap:round; stroke-linejoin:round; stroke-width:2; stroke-opacity:0.1; fill:none" points="2150.29,1358.71 2150.29,123.472 "/>
<polyline clip-path="url(#clip842)" style="stroke:#000000; stroke-linecap:round; stroke-linejoin:round; stroke-width:2; stroke-opacity:0.1; fill:none" points="2352.76,1358.71 2352.76,123.472 "/>
<polyline clip-path="url(#clip840)" style="stroke:#000000; stroke-linecap:round; stroke-linejoin:round; stroke-width:4; stroke-opacity:1; fill:none" points="328.087,1358.71 2352.76,1358.71 "/>
<polyline clip-path="url(#clip840)" style="stroke:#000000; stroke-linecap:round; stroke-linejoin:round; stroke-width:4; stroke-opacity:1; fill:none" points="328.087,1358.71 328.087,1339.81 "/>
<polyline clip-path="url(#clip840)" style="stroke:#000000; stroke-linecap:round; stroke-linejoin:round; stroke-width:4; stroke-opacity:1; fill:none" points="530.554,1358.71 530.554,1339.81 "/>
<polyline clip-path="url(#clip840)" style="stroke:#000000; stroke-linecap:round; stroke-linejoin:round; stroke-width:4; stroke-opacity:1; fill:none" points="733.021,1358.71 733.021,1339.81 "/>
<polyline clip-path="url(#clip840)" style="stroke:#000000; stroke-linecap:round; stroke-linejoin:round; stroke-width:4; stroke-opacity:1; fill:none" points="935.488,1358.71 935.488,1339.81 "/>
<polyline clip-path="url(#clip840)" style="stroke:#000000; stroke-linecap:round; stroke-linejoin:round; stroke-width:4; stroke-opacity:1; fill:none" points="1137.95,1358.71 1137.95,1339.81 "/>
<polyline clip-path="url(#clip840)" style="stroke:#000000; stroke-linecap:round; stroke-linejoin:round; stroke-width:4; stroke-opacity:1; fill:none" points="1340.42,1358.71 1340.42,1339.81 "/>
<polyline clip-path="url(#clip840)" style="stroke:#000000; stroke-linecap:round; stroke-linejoin:round; stroke-width:4; stroke-opacity:1; fill:none" points="1542.89,1358.71 1542.89,1339.81 "/>
<polyline clip-path="url(#clip840)" style="stroke:#000000; stroke-linecap:round; stroke-linejoin:round; stroke-width:4; stroke-opacity:1; fill:none" points="1745.36,1358.71 1745.36,1339.81 "/>
<polyline clip-path="url(#clip840)" style="stroke:#000000; stroke-linecap:round; stroke-linejoin:round; stroke-width:4; stroke-opacity:1; fill:none" points="1947.82,1358.71 1947.82,1339.81 "/>
<polyline clip-path="url(#clip840)" style="stroke:#000000; stroke-linecap:round; stroke-linejoin:round; stroke-width:4; stroke-opacity:1; fill:none" points="2150.29,1358.71 2150.29,1339.81 "/>
<polyline clip-path="url(#clip840)" style="stroke:#000000; stroke-linecap:round; stroke-linejoin:round; stroke-width:4; stroke-opacity:1; fill:none" points="2352.76,1358.71 2352.76,1339.81 "/>
<g clip-path="url(#clip840)">
<text style="fill:#000000; fill-opacity:1; font-family:Courier,Courier New,Lucida Sans Typewriter,Lucida Typewriter,monospace; font-size:118px; text-anchor:middle;" transform="rotate(0, 328.087, 1464)" x="328.087" y="1464">0</text>
</g>
<g clip-path="url(#clip840)">
<text style="fill:#000000; fill-opacity:1; font-family:Courier,Courier New,Lucida Sans Typewriter,Lucida Typewriter,monospace; font-size:118px; text-anchor:middle;" transform="rotate(0, 530.554, 1464)" x="530.554" y="1464">1</text>
</g>
<g clip-path="url(#clip840)">
<text style="fill:#000000; fill-opacity:1; font-family:Courier,Courier New,Lucida Sans Typewriter,Lucida Typewriter,monospace; font-size:118px; text-anchor:middle;" transform="rotate(0, 733.021, 1464)" x="733.021" y="1464">2</text>
</g>
<g clip-path="url(#clip840)">
<text style="fill:#000000; fill-opacity:1; font-family:Courier,Courier New,Lucida Sans Typewriter,Lucida Typewriter,monospace; font-size:118px; text-anchor:middle;" transform="rotate(0, 935.488, 1464)" x="935.488" y="1464">3</text>
</g>
<g clip-path="url(#clip840)">
<text style="fill:#000000; fill-opacity:1; font-family:Courier,Courier New,Lucida Sans Typewriter,Lucida Typewriter,monospace; font-size:118px; text-anchor:middle;" transform="rotate(0, 1137.95, 1464)" x="1137.95" y="1464">4</text>
</g>
<g clip-path="url(#clip840)">
<text style="fill:#000000; fill-opacity:1; font-family:Courier,Courier New,Lucida Sans Typewriter,Lucida Typewriter,monospace; font-size:118px; text-anchor:middle;" transform="rotate(0, 1340.42, 1464)" x="1340.42" y="1464">5</text>
</g>
<g clip-path="url(#clip840)">
<text style="fill:#000000; fill-opacity:1; font-family:Courier,Courier New,Lucida Sans Typewriter,Lucida Typewriter,monospace; font-size:118px; text-anchor:middle;" transform="rotate(0, 1542.89, 1464)" x="1542.89" y="1464">6</text>
</g>
<g clip-path="url(#clip840)">
<text style="fill:#000000; fill-opacity:1; font-family:Courier,Courier New,Lucida Sans Typewriter,Lucida Typewriter,monospace; font-size:118px; text-anchor:middle;" transform="rotate(0, 1745.36, 1464)" x="1745.36" y="1464">7</text>
</g>
<g clip-path="url(#clip840)">
<text style="fill:#000000; fill-opacity:1; font-family:Courier,Courier New,Lucida Sans Typewriter,Lucida Typewriter,monospace; font-size:118px; text-anchor:middle;" transform="rotate(0, 1947.82, 1464)" x="1947.82" y="1464">8</text>
</g>
<g clip-path="url(#clip840)">
<text style="fill:#000000; fill-opacity:1; font-family:Courier,Courier New,Lucida Sans Typewriter,Lucida Typewriter,monospace; font-size:118px; text-anchor:middle;" transform="rotate(0, 2150.29, 1464)" x="2150.29" y="1464">9</text>
</g>
<g clip-path="url(#clip840)">
<text style="fill:#000000; fill-opacity:1; font-family:Courier,Courier New,Lucida Sans Typewriter,Lucida Typewriter,monospace; font-size:118px; text-anchor:middle;" transform="rotate(0, 2352.76, 1464)" x="2352.76" y="1464">10</text>
</g>
<path clip-path="url(#clip840)" d="M1367.61 1532.87 L1346.52 1561.26 L1368.7 1591.21 L1357.4 1591.21 L1340.42 1568.29 L1323.44 1591.21 L1312.14 1591.21 L1334.8 1560.69 L1314.07 1532.87 L1325.37 1532.87 L1340.84 1553.66 L1356.31 1532.87 L1367.61 1532.87 Z" fill="#000000" fill-rule="nonzero" fill-opacity="1" /><polyline clip-path="url(#clip842)" style="stroke:#000000; stroke-linecap:round; stroke-linejoin:round; stroke-width:2; stroke-opacity:0.1; fill:none" points="328.087,1323.75 2352.76,1323.75 "/>
<polyline clip-path="url(#clip842)" style="stroke:#000000; stroke-linecap:round; stroke-linejoin:round; stroke-width:2; stroke-opacity:0.1; fill:none" points="328.087,924.717 2352.76,924.717 "/>
<polyline clip-path="url(#clip842)" style="stroke:#000000; stroke-linecap:round; stroke-linejoin:round; stroke-width:2; stroke-opacity:0.1; fill:none" points="328.087,525.687 2352.76,525.687 "/>
<polyline clip-path="url(#clip842)" style="stroke:#000000; stroke-linecap:round; stroke-linejoin:round; stroke-width:2; stroke-opacity:0.1; fill:none" points="328.087,126.656 2352.76,126.656 "/>
<polyline clip-path="url(#clip840)" style="stroke:#000000; stroke-linecap:round; stroke-linejoin:round; stroke-width:4; stroke-opacity:1; fill:none" points="328.087,1358.71 328.087,123.472 "/>
<polyline clip-path="url(#clip840)" style="stroke:#000000; stroke-linecap:round; stroke-linejoin:round; stroke-width:4; stroke-opacity:1; fill:none" points="328.087,1323.75 346.985,1323.75 "/>
<polyline clip-path="url(#clip840)" style="stroke:#000000; stroke-linecap:round; stroke-linejoin:round; stroke-width:4; stroke-opacity:1; fill:none" points="328.087,924.717 346.985,924.717 "/>
<polyline clip-path="url(#clip840)" style="stroke:#000000; stroke-linecap:round; stroke-linejoin:round; stroke-width:4; stroke-opacity:1; fill:none" points="328.087,525.687 346.985,525.687 "/>
<polyline clip-path="url(#clip840)" style="stroke:#000000; stroke-linecap:round; stroke-linejoin:round; stroke-width:4; stroke-opacity:1; fill:none" points="328.087,126.656 346.985,126.656 "/>
<g clip-path="url(#clip840)">
<text style="fill:#000000; fill-opacity:1; font-family:Courier,Courier New,Lucida Sans Typewriter,Lucida Typewriter,monospace; font-size:118px; text-anchor:middle;" transform="rotate(0, 255.191, 1358.25)" x="255.191" y="1358.25">0</text>
</g>
<g clip-path="url(#clip840)">
<text style="fill:#000000; fill-opacity:1; font-family:Courier,Courier New,Lucida Sans Typewriter,Lucida Typewriter,monospace; font-size:118px; text-anchor:middle;" transform="rotate(0, 255.191, 959.217)" x="255.191" y="959.217">5</text>
</g>
<g clip-path="url(#clip840)">
<text style="fill:#000000; fill-opacity:1; font-family:Courier,Courier New,Lucida Sans Typewriter,Lucida Typewriter,monospace; font-size:118px; text-anchor:middle;" transform="rotate(0, 218.294, 560.187)" x="218.294" y="560.187">10</text>
</g>
<g clip-path="url(#clip840)">
<text style="fill:#000000; fill-opacity:1; font-family:Courier,Courier New,Lucida Sans Typewriter,Lucida Typewriter,monospace; font-size:118px; text-anchor:middle;" transform="rotate(0, 218.294, 161.156)" x="218.294" y="161.156">15</text>
</g>
<path clip-path="url(#clip840)" d="M13.4017 1180.2 L24.4954 1180.2 Q19.5475 1185.51 17.0996 1191.56 Q14.6517 1197.55 14.6517 1204.32 Q14.6517 1217.65 22.8287 1224.73 Q30.9537 1231.82 46.3703 1231.82 Q61.7348 1231.82 69.9118 1224.73 Q78.0368 1217.65 78.0368 1204.32 Q78.0368 1197.55 75.5889 1191.56 Q73.141 1185.51 68.1931 1180.2 L79.1826 1180.2 Q82.9326 1185.72 84.8076 1191.92 Q86.6826 1198.07 86.6826 1204.94 Q86.6826 1222.6 75.9014 1232.75 Q65.0681 1242.91 46.3703 1242.91 Q27.6204 1242.91 16.8392 1232.75 Q6.00592 1222.6 6.00592 1204.94 Q6.00592 1197.96 7.8809 1191.82 Q9.70381 1185.62 13.4017 1180.2 Z" fill="#000000" fill-rule="nonzero" fill-opacity="1" /><path clip-path="url(#clip840)" d="M62.1514 1165.36 L26.8391 1165.36 L26.8391 1155.78 L61.7869 1155.78 Q70.0681 1155.78 74.2347 1152.55 Q78.3493 1149.32 78.3493 1142.86 Q78.3493 1135.1 73.4014 1130.62 Q68.4535 1126.09 59.9119 1126.09 L26.8391 1126.09 L26.8391 1116.5 L85.1722 1116.5 L85.1722 1126.09 L76.2139 1126.09 Q81.5263 1129.58 84.1305 1134.21 Q86.6826 1138.8 86.6826 1144.89 Q86.6826 1154.94 80.4326 1160.15 Q74.1826 1165.36 62.1514 1165.36 M25.4329 1141.24 L25.4329 1141.24 Z" fill="#000000" fill-rule="nonzero" fill-opacity="1" /><path clip-path="url(#clip840)" d="M38.037 1051.35 Q31.5787 1047.75 28.5058 1042.76 Q25.4329 1037.76 25.4329 1030.98 Q25.4329 1021.87 31.8391 1016.92 Q38.1932 1011.97 49.964 1011.97 L85.1722 1011.97 L85.1722 1021.61 L50.2765 1021.61 Q41.8911 1021.61 37.8287 1024.58 Q33.7662 1027.55 33.7662 1033.64 Q33.7662 1041.09 38.7141 1045.41 Q43.662 1049.73 52.2036 1049.73 L85.1722 1049.73 L85.1722 1059.37 L50.2765 1059.37 Q41.8391 1059.37 37.8287 1062.34 Q33.7662 1065.31 33.7662 1071.5 Q33.7662 1078.85 38.7662 1083.17 Q43.714 1087.49 52.2036 1087.49 L85.1722 1087.49 L85.1722 1097.13 L26.8391 1097.13 L26.8391 1087.49 L35.9016 1087.49 Q30.537 1084.21 27.985 1079.63 Q25.4329 1075.05 25.4329 1068.74 Q25.4329 1062.39 28.662 1057.96 Q31.8912 1053.48 38.037 1051.35 Z" fill="#000000" fill-rule="nonzero" fill-opacity="1" /><path clip-path="url(#clip840)" d="M62.1514 993.849 L26.8391 993.849 L26.8391 984.266 L61.7869 984.266 Q70.0681 984.266 74.2347 981.037 Q78.3493 977.807 78.3493 971.349 Q78.3493 963.589 73.4014 959.11 Q68.4535 954.578 59.9119 954.578 L26.8391 954.578 L26.8391 944.995 L85.1722 944.995 L85.1722 954.578 L76.2139 954.578 Q81.5263 958.068 84.1305 962.703 Q86.6826 967.287 86.6826 973.38 Q86.6826 983.432 80.4326 988.641 Q74.1826 993.849 62.1514 993.849 M25.4329 969.735 L25.4329 969.735 Z" fill="#000000" fill-rule="nonzero" fill-opacity="1" /><path clip-path="url(#clip840)" d="M4.13093 925.256 L4.13093 915.672 L85.1722 915.672 L85.1722 925.256 L4.13093 925.256 Z" fill="#000000" fill-rule="nonzero" fill-opacity="1" /><path clip-path="url(#clip840)" d="M55.8494 869.11 Q55.8494 880.725 58.5056 885.204 Q61.1619 889.683 67.5681 889.683 Q72.6722 889.683 75.693 886.35 Q78.6618 882.964 78.6618 877.183 Q78.6618 869.214 73.0368 864.423 Q67.3598 859.579 57.9848 859.579 L55.8494 859.579 L55.8494 869.11 M51.8911 849.996 L85.1722 849.996 L85.1722 859.579 L76.318 859.579 Q81.6305 862.86 84.1826 867.756 Q86.6826 872.652 86.6826 879.735 Q86.6826 888.693 81.6826 894.006 Q76.6305 899.266 68.1931 899.266 Q58.3494 899.266 53.3494 892.704 Q48.3494 886.089 48.3494 873.016 L48.3494 859.579 L47.4119 859.579 Q40.7974 859.579 37.2037 863.954 Q33.5579 868.277 33.5579 876.141 Q33.5579 881.141 34.7558 885.881 Q35.9537 890.62 38.3495 894.995 L29.4954 894.995 Q27.4641 889.735 26.4746 884.787 Q25.4329 879.839 25.4329 875.152 Q25.4329 862.496 31.9954 856.246 Q38.5578 849.996 51.8911 849.996 Z" fill="#000000" fill-rule="nonzero" fill-opacity="1" /><path clip-path="url(#clip840)" d="M10.2767 820.777 L26.8391 820.777 L26.8391 801.038 L34.287 801.038 L34.287 820.777 L65.9535 820.777 Q73.0889 820.777 75.1201 818.85 Q77.1514 816.871 77.1514 810.881 L77.1514 801.038 L85.1722 801.038 L85.1722 810.881 Q85.1722 821.975 81.0576 826.194 Q76.891 830.412 65.9535 830.412 L34.287 830.412 L34.287 837.444 L26.8391 837.444 L26.8391 830.412 L10.2767 830.412 L10.2767 820.777 Z" fill="#000000" fill-rule="nonzero" fill-opacity="1" /><path clip-path="url(#clip840)" d="M26.8391 788.433 L26.8391 778.85 L85.1722 778.85 L85.1722 788.433 L26.8391 788.433 M4.13093 788.433 L4.13093 778.85 L16.2663 778.85 L16.2663 788.433 L4.13093 788.433 Z" fill="#000000" fill-rule="nonzero" fill-opacity="1" /><path clip-path="url(#clip840)" d="M26.8391 765.673 L26.8391 755.517 L75.7972 737.288 L26.8391 719.059 L26.8391 708.903 L85.1722 730.778 L85.1722 743.798 L26.8391 765.673 Z" fill="#000000" fill-rule="nonzero" fill-opacity="1" /><path clip-path="url(#clip840)" d="M53.6098 645.778 L58.2973 645.778 L58.2973 689.84 Q68.1931 689.215 73.4014 683.903 Q78.5576 678.538 78.5576 669.007 Q78.5576 663.486 77.2035 658.33 Q75.8493 653.122 73.141 648.018 L82.2034 648.018 Q84.3909 653.174 85.5367 658.59 Q86.6826 664.007 86.6826 669.58 Q86.6826 683.538 78.5576 691.715 Q70.4327 699.84 56.5786 699.84 Q42.2557 699.84 33.8703 692.132 Q25.4329 684.372 25.4329 671.247 Q25.4329 659.476 33.037 652.653 Q40.5891 645.778 53.6098 645.778 M50.7973 655.361 Q42.9328 655.465 38.2453 659.788 Q33.5579 664.059 33.5579 671.142 Q33.5579 679.163 38.0891 684.007 Q42.6203 688.799 50.8494 689.528 L50.7973 655.361 Z" fill="#000000" fill-rule="nonzero" fill-opacity="1" /><path clip-path="url(#clip840)" d="M7.41216 595.726 L7.41216 585.205 L39.287 585.205 L39.287 546.976 L7.41216 546.976 L7.41216 536.456 L85.1722 536.456 L85.1722 546.976 L48.1411 546.976 L48.1411 585.205 L85.1722 585.205 L85.1722 595.726 L7.41216 595.726 Z" fill="#000000" fill-rule="nonzero" fill-opacity="1" /><path clip-path="url(#clip840)" d="M55.8494 489.425 Q55.8494 501.039 58.5056 505.518 Q61.1619 509.997 67.5681 509.997 Q72.6722 509.997 75.693 506.664 Q78.6618 503.279 78.6618 497.498 Q78.6618 489.529 73.0368 484.737 Q67.3598 479.893 57.9848 479.893 L55.8494 479.893 L55.8494 489.425 M51.8911 470.31 L85.1722 470.31 L85.1722 479.893 L76.318 479.893 Q81.6305 483.175 84.1826 488.07 Q86.6826 492.966 86.6826 500.05 Q86.6826 509.008 81.6826 514.32 Q76.6305 519.581 68.1931 519.581 Q58.3494 519.581 53.3494 513.018 Q48.3494 506.404 48.3494 493.331 L48.3494 479.893 L47.4119 479.893 Q40.7974 479.893 37.2037 484.268 Q33.5579 488.591 33.5579 496.456 Q33.5579 501.456 34.7558 506.195 Q35.9537 510.935 38.3495 515.31 L29.4954 515.31 Q27.4641 510.05 26.4746 505.102 Q25.4329 500.154 25.4329 495.466 Q25.4329 482.81 31.9954 476.56 Q38.5578 470.31 51.8911 470.31 Z" fill="#000000" fill-rule="nonzero" fill-opacity="1" /><path clip-path="url(#clip840)" d="M26.8391 454.737 L26.8391 409.217 L35.5891 409.217 L77.5159 445.258 L77.5159 409.217 L85.1722 409.217 L85.1722 456.039 L76.4222 456.039 L34.4953 419.998 L34.4953 454.737 L26.8391 454.737 Z" fill="#000000" fill-rule="nonzero" fill-opacity="1" /><path clip-path="url(#clip840)" d="M55.8494 368.071 Q55.8494 379.686 58.5056 384.165 Q61.1619 388.644 67.5681 388.644 Q72.6722 388.644 75.693 385.311 Q78.6618 381.925 78.6618 376.144 Q78.6618 368.175 73.0368 363.384 Q67.3598 358.54 57.9848 358.54 L55.8494 358.54 L55.8494 368.071 M51.8911 348.957 L85.1722 348.957 L85.1722 358.54 L76.318 358.54 Q81.6305 361.821 84.1826 366.717 Q86.6826 371.613 86.6826 378.696 Q86.6826 387.654 81.6826 392.967 Q76.6305 398.227 68.1931 398.227 Q58.3494 398.227 53.3494 391.665 Q48.3494 385.05 48.3494 371.977 L48.3494 358.54 L47.4119 358.54 Q40.7974 358.54 37.2037 362.915 Q33.5579 367.238 33.5579 375.102 Q33.5579 380.102 34.7558 384.842 Q35.9537 389.581 38.3495 393.956 L29.4954 393.956 Q27.4641 388.696 26.4746 383.748 Q25.4329 378.8 25.4329 374.113 Q25.4329 361.457 31.9954 355.207 Q38.5578 348.957 51.8911 348.957 Z" fill="#000000" fill-rule="nonzero" fill-opacity="1" /><path clip-path="url(#clip840)" d="M35.7974 295.415 Q34.8599 297.03 34.4433 298.957 Q33.9745 300.832 33.9745 303.124 Q33.9745 311.249 39.287 315.623 Q44.5474 319.946 54.4432 319.946 L85.1722 319.946 L85.1722 329.582 L26.8391 329.582 L26.8391 319.946 L35.9016 319.946 Q30.5891 316.926 28.037 312.082 Q25.4329 307.238 25.4329 300.311 Q25.4329 299.322 25.5891 298.124 Q25.6933 296.926 25.9537 295.467 L35.7974 295.415 Z" fill="#000000" fill-rule="nonzero" fill-opacity="1" /><path clip-path="url(#clip840)" d="M35.6933 248.853 L4.13093 248.853 L4.13093 239.27 L85.1722 239.27 L85.1722 248.853 L76.4222 248.853 Q81.6305 251.874 84.1826 256.509 Q86.6826 261.093 86.6826 267.551 Q86.6826 278.124 78.2451 284.79 Q69.8077 291.405 56.0577 291.405 Q42.3078 291.405 33.8703 284.79 Q25.4329 278.124 25.4329 267.551 Q25.4329 261.093 27.985 256.509 Q30.485 251.874 35.6933 248.853 M56.0577 281.509 Q66.6306 281.509 72.6722 277.186 Q78.6618 272.811 78.6618 265.207 Q78.6618 257.603 72.6722 253.228 Q66.6306 248.853 56.0577 248.853 Q45.4849 248.853 39.4953 253.228 Q33.4537 257.603 33.4537 265.207 Q33.4537 272.811 39.4953 277.186 Q45.4849 281.509 56.0577 281.509 Z" fill="#000000" fill-rule="nonzero" fill-opacity="1" /><path clip-path="url(#clip840)" d="M977.623 63.9476 L977.623 47.7034 L964.255 47.7034 L964.255 40.9789 L985.724 40.9789 L985.724 66.9452 Q980.985 70.3075 975.273 72.0494 Q969.561 73.7508 963.08 73.7508 Q948.902 73.7508 940.881 65.4869 Q932.901 57.1826 932.901 42.3968 Q932.901 27.5705 940.881 19.3066 Q948.902 11.0023 963.08 11.0023 Q968.994 11.0023 974.301 12.4606 Q979.648 13.9189 984.145 16.7545 L984.145 25.464 Q979.608 21.6156 974.503 19.6712 Q969.399 17.7268 963.769 17.7268 Q952.669 17.7268 947.079 23.9246 Q941.529 30.1225 941.529 42.3968 Q941.529 54.6305 947.079 60.8284 Q952.669 67.0263 963.769 67.0263 Q968.103 67.0263 971.506 66.2971 Q974.909 65.5274 977.623 63.9476 Z" fill="#000000" fill-rule="nonzero" fill-opacity="1" /><path clip-path="url(#clip840)" d="M1020.97 49.7694 Q1011.93 49.7694 1008.45 51.8354 Q1004.97 53.9013 1004.97 58.8839 Q1004.97 62.8538 1007.56 65.2034 Q1010.19 67.5124 1014.69 67.5124 Q1020.89 67.5124 1024.61 63.1374 Q1028.38 58.7219 1028.38 51.4303 L1028.38 49.7694 L1020.97 49.7694 M1035.83 46.6907 L1035.83 72.576 L1028.38 72.576 L1028.38 65.6895 Q1025.83 69.8214 1022.02 71.8063 Q1018.21 73.7508 1012.7 73.7508 Q1005.74 73.7508 1001.6 69.8619 Q997.513 65.9325 997.513 59.3701 Q997.513 51.7138 1002.62 47.825 Q1007.76 43.9361 1017.93 43.9361 L1028.38 43.9361 L1028.38 43.2069 Q1028.38 38.0623 1024.98 35.2672 Q1021.62 32.4315 1015.5 32.4315 Q1011.61 32.4315 1007.92 33.3632 Q1004.24 34.295 1000.83 36.1584 L1000.83 29.2718 Q1004.93 27.692 1008.77 26.9223 Q1012.62 26.1121 1016.27 26.1121 Q1026.11 26.1121 1030.97 31.2163 Q1035.83 36.3204 1035.83 46.6907 Z" fill="#000000" fill-rule="nonzero" fill-opacity="1" /><path clip-path="url(#clip840)" d="M1086.51 35.9153 Q1089.31 30.8922 1093.19 28.5022 Q1097.08 26.1121 1102.35 26.1121 Q1109.44 26.1121 1113.29 31.0947 Q1117.14 36.0368 1117.14 45.1919 L1117.14 72.576 L1109.64 72.576 L1109.64 45.4349 Q1109.64 38.913 1107.33 35.7533 Q1105.02 32.5936 1100.28 32.5936 Q1094.49 32.5936 1091.13 36.4419 Q1087.77 40.2903 1087.77 46.9338 L1087.77 72.576 L1080.27 72.576 L1080.27 45.4349 Q1080.27 38.8725 1077.96 35.7533 Q1075.65 32.5936 1070.83 32.5936 Q1065.12 32.5936 1061.76 36.4824 Q1058.4 40.3308 1058.4 46.9338 L1058.4 72.576 L1050.9 72.576 L1050.9 27.2059 L1058.4 27.2059 L1058.4 34.2544 Q1060.95 30.082 1064.51 28.0971 Q1068.08 26.1121 1072.98 26.1121 Q1077.92 26.1121 1081.37 28.6237 Q1084.85 31.1352 1086.51 35.9153 Z" fill="#000000" fill-rule="nonzero" fill-opacity="1" /><path clip-path="url(#clip840)" d="M1167.33 35.9153 Q1170.12 30.8922 1174.01 28.5022 Q1177.9 26.1121 1183.17 26.1121 Q1190.25 26.1121 1194.1 31.0947 Q1197.95 36.0368 1197.95 45.1919 L1197.95 72.576 L1190.46 72.576 L1190.46 45.4349 Q1190.46 38.913 1188.15 35.7533 Q1185.84 32.5936 1181.1 32.5936 Q1175.31 32.5936 1171.94 36.4419 Q1168.58 40.2903 1168.58 46.9338 L1168.58 72.576 L1161.09 72.576 L1161.09 45.4349 Q1161.09 38.8725 1158.78 35.7533 Q1156.47 32.5936 1151.65 32.5936 Q1145.94 32.5936 1142.58 36.4824 Q1139.21 40.3308 1139.21 46.9338 L1139.21 72.576 L1131.72 72.576 L1131.72 27.2059 L1139.21 27.2059 L1139.21 34.2544 Q1141.77 30.082 1145.33 28.0971 Q1148.89 26.1121 1153.8 26.1121 Q1158.74 26.1121 1162.18 28.6237 Q1165.67 31.1352 1167.33 35.9153 Z" fill="#000000" fill-rule="nonzero" fill-opacity="1" /><path clip-path="url(#clip840)" d="M1233.44 49.7694 Q1224.4 49.7694 1220.92 51.8354 Q1217.44 53.9013 1217.44 58.8839 Q1217.44 62.8538 1220.03 65.2034 Q1222.66 67.5124 1227.16 67.5124 Q1233.36 67.5124 1237.08 63.1374 Q1240.85 58.7219 1240.85 51.4303 L1240.85 49.7694 L1233.44 49.7694 M1248.3 46.6907 L1248.3 72.576 L1240.85 72.576 L1240.85 65.6895 Q1238.3 69.8214 1234.49 71.8063 Q1230.68 73.7508 1225.17 73.7508 Q1218.21 73.7508 1214.07 69.8619 Q1209.98 65.9325 1209.98 59.3701 Q1209.98 51.7138 1215.09 47.825 Q1220.23 43.9361 1230.4 43.9361 L1240.85 43.9361 L1240.85 43.2069 Q1240.85 38.0623 1237.45 35.2672 Q1234.09 32.4315 1227.97 32.4315 Q1224.08 32.4315 1220.39 33.3632 Q1216.71 34.295 1213.3 36.1584 L1213.3 29.2718 Q1217.4 27.692 1221.24 26.9223 Q1225.09 26.1121 1228.74 26.1121 Q1238.58 26.1121 1243.44 31.2163 Q1248.3 36.3204 1248.3 46.6907 Z" fill="#000000" fill-rule="nonzero" fill-opacity="1" /><path clip-path="url(#clip840)" d="M1319.88 34.0924 L1319.88 9.54393 L1327.34 9.54393 L1327.34 72.576 L1319.88 72.576 L1319.88 65.7705 Q1317.53 69.8214 1313.93 71.8063 Q1310.36 73.7508 1305.34 73.7508 Q1297.12 73.7508 1291.93 67.1883 Q1286.79 60.6258 1286.79 49.9314 Q1286.79 39.2371 1291.93 32.6746 Q1297.12 26.1121 1305.34 26.1121 Q1310.36 26.1121 1313.93 28.0971 Q1317.53 30.0415 1319.88 34.0924 M1294.48 49.9314 Q1294.48 58.1548 1297.85 62.8538 Q1301.25 67.5124 1307.16 67.5124 Q1313.08 67.5124 1316.48 62.8538 Q1319.88 58.1548 1319.88 49.9314 Q1319.88 41.7081 1316.48 37.0496 Q1313.08 32.3505 1307.16 32.3505 Q1301.25 32.3505 1297.85 37.0496 Q1294.48 41.7081 1294.48 49.9314 Z" fill="#000000" fill-rule="nonzero" fill-opacity="1" /><path clip-path="url(#clip840)" d="M1342.69 27.2059 L1350.14 27.2059 L1350.14 72.576 L1342.69 72.576 L1342.69 27.2059 M1342.69 9.54393 L1350.14 9.54393 L1350.14 18.9825 L1342.69 18.9825 L1342.69 9.54393 Z" fill="#000000" fill-rule="nonzero" fill-opacity="1" /><path clip-path="url(#clip840)" d="M1394.66 28.5427 L1394.66 35.5912 Q1391.5 33.9709 1388.1 33.1607 Q1384.7 32.3505 1381.05 32.3505 Q1375.5 32.3505 1372.71 34.0519 Q1369.95 35.7533 1369.95 39.156 Q1369.95 41.7486 1371.94 43.2475 Q1373.92 44.7058 1379.92 46.0426 L1382.47 46.6097 Q1390.41 48.3111 1393.73 51.4303 Q1397.09 54.509 1397.09 60.0587 Q1397.09 66.3781 1392.07 70.0644 Q1387.09 73.7508 1378.34 73.7508 Q1374.69 73.7508 1370.72 73.0216 Q1366.79 72.3329 1362.42 70.9151 L1362.42 63.2184 Q1366.55 65.3654 1370.56 66.4591 Q1374.57 67.5124 1378.5 67.5124 Q1383.77 67.5124 1386.6 65.73 Q1389.44 63.9071 1389.44 60.6258 Q1389.44 57.5877 1387.37 55.9673 Q1385.35 54.3469 1378.42 52.8481 L1375.83 52.2405 Q1368.9 50.7821 1365.82 47.7845 Q1362.74 44.7463 1362.74 39.4801 Q1362.74 33.0797 1367.28 29.5959 Q1371.82 26.1121 1380.16 26.1121 Q1384.29 26.1121 1387.94 26.7198 Q1391.58 27.3274 1394.66 28.5427 Z" fill="#000000" fill-rule="nonzero" fill-opacity="1" /><path clip-path="url(#clip840)" d="M1416.34 14.324 L1416.34 27.2059 L1431.69 27.2059 L1431.69 32.9987 L1416.34 32.9987 L1416.34 57.6282 Q1416.34 63.1779 1417.83 64.7578 Q1419.37 66.3376 1424.03 66.3376 L1431.69 66.3376 L1431.69 72.576 L1424.03 72.576 Q1415.4 72.576 1412.12 69.3758 Q1408.84 66.1351 1408.84 57.6282 L1408.84 32.9987 L1403.37 32.9987 L1403.37 27.2059 L1408.84 27.2059 L1408.84 14.324 L1416.34 14.324 Z" fill="#000000" fill-rule="nonzero" fill-opacity="1" /><path clip-path="url(#clip840)" d="M1467.78 34.1734 Q1466.53 33.4443 1465.03 33.1202 Q1463.57 32.7556 1461.79 32.7556 Q1455.47 32.7556 1452.06 36.8875 Q1448.7 40.9789 1448.7 48.6757 L1448.7 72.576 L1441.21 72.576 L1441.21 27.2059 L1448.7 27.2059 L1448.7 34.2544 Q1451.05 30.1225 1454.82 28.1376 Q1458.59 26.1121 1463.97 26.1121 Q1464.74 26.1121 1465.68 26.2337 Q1466.61 26.3147 1467.74 26.5172 L1467.78 34.1734 Z" fill="#000000" fill-rule="nonzero" fill-opacity="1" /><path clip-path="url(#clip840)" d="M1475.6 27.2059 L1483.05 27.2059 L1483.05 72.576 L1475.6 72.576 L1475.6 27.2059 M1475.6 9.54393 L1483.05 9.54393 L1483.05 18.9825 L1475.6 18.9825 L1475.6 9.54393 Z" fill="#000000" fill-rule="nonzero" fill-opacity="1" /><path clip-path="url(#clip840)" d="M1531.22 49.9314 Q1531.22 41.7081 1527.82 37.0496 Q1524.45 32.3505 1518.54 32.3505 Q1512.63 32.3505 1509.22 37.0496 Q1505.86 41.7081 1505.86 49.9314 Q1505.86 58.1548 1509.22 62.8538 Q1512.63 67.5124 1518.54 67.5124 Q1524.45 67.5124 1527.82 62.8538 Q1531.22 58.1548 1531.22 49.9314 M1505.86 34.0924 Q1508.21 30.0415 1511.77 28.0971 Q1515.38 26.1121 1520.36 26.1121 Q1528.63 26.1121 1533.77 32.6746 Q1538.96 39.2371 1538.96 49.9314 Q1538.96 60.6258 1533.77 67.1883 Q1528.63 73.7508 1520.36 73.7508 Q1515.38 73.7508 1511.77 71.8063 Q1508.21 69.8214 1505.86 65.7705 L1505.86 72.576 L1498.37 72.576 L1498.37 9.54393 L1505.86 9.54393 L1505.86 34.0924 Z" fill="#000000" fill-rule="nonzero" fill-opacity="1" /><path clip-path="url(#clip840)" d="M1550.54 54.671 L1550.54 27.2059 L1558 27.2059 L1558 54.3874 Q1558 60.8284 1560.51 64.0691 Q1563.02 67.2693 1568.04 67.2693 Q1574.08 67.2693 1577.56 63.421 Q1581.09 59.5726 1581.09 52.9291 L1581.09 27.2059 L1588.54 27.2059 L1588.54 72.576 L1581.09 72.576 L1581.09 65.6084 Q1578.37 69.7404 1574.77 71.7658 Q1571.2 73.7508 1566.46 73.7508 Q1558.64 73.7508 1554.59 68.8897 Q1550.54 64.0286 1550.54 54.671 M1569.3 26.1121 L1569.3 26.1121 Z" fill="#000000" fill-rule="nonzero" fill-opacity="1" /><path clip-path="url(#clip840)" d="M1611.27 14.324 L1611.27 27.2059 L1626.62 27.2059 L1626.62 32.9987 L1611.27 32.9987 L1611.27 57.6282 Q1611.27 63.1779 1612.76 64.7578 Q1614.3 66.3376 1618.96 66.3376 L1626.62 66.3376 L1626.62 72.576 L1618.96 72.576 Q1610.33 72.576 1607.05 69.3758 Q1603.77 66.1351 1603.77 57.6282 L1603.77 32.9987 L1598.3 32.9987 L1598.3 27.2059 L1603.77 27.2059 L1603.77 14.324 L1611.27 14.324 Z" fill="#000000" fill-rule="nonzero" fill-opacity="1" /><path clip-path="url(#clip840)" d="M1636.42 27.2059 L1643.87 27.2059 L1643.87 72.576 L1636.42 72.576 L1636.42 27.2059 M1636.42 9.54393 L1643.87 9.54393 L1643.87 18.9825 L1636.42 18.9825 L1636.42 9.54393 Z" fill="#000000" fill-rule="nonzero" fill-opacity="1" /><path clip-path="url(#clip840)" d="M1677.05 32.4315 Q1671.06 32.4315 1667.57 37.1306 Q1664.09 41.7891 1664.09 49.9314 Q1664.09 58.0738 1667.53 62.7728 Q1671.02 67.4314 1677.05 67.4314 Q1683.01 67.4314 1686.49 62.7323 Q1689.97 58.0333 1689.97 49.9314 Q1689.97 41.8701 1686.49 37.1711 Q1683.01 32.4315 1677.05 32.4315 M1677.05 26.1121 Q1686.77 26.1121 1692.32 32.4315 Q1697.87 38.7509 1697.87 49.9314 Q1697.87 61.0714 1692.32 67.4314 Q1686.77 73.7508 1677.05 73.7508 Q1667.29 73.7508 1661.74 67.4314 Q1656.23 61.0714 1656.23 49.9314 Q1656.23 38.7509 1661.74 32.4315 Q1667.29 26.1121 1677.05 26.1121 Z" fill="#000000" fill-rule="nonzero" fill-opacity="1" /><path clip-path="url(#clip840)" d="M1747.94 45.1919 L1747.94 72.576 L1740.49 72.576 L1740.49 45.4349 Q1740.49 38.994 1737.98 35.7938 Q1735.47 32.5936 1730.44 32.5936 Q1724.41 32.5936 1720.92 36.4419 Q1717.44 40.2903 1717.44 46.9338 L1717.44 72.576 L1709.95 72.576 L1709.95 27.2059 L1717.44 27.2059 L1717.44 34.2544 Q1720.11 30.163 1723.72 28.1376 Q1727.36 26.1121 1732.1 26.1121 Q1739.92 26.1121 1743.93 30.9732 Q1747.94 35.7938 1747.94 45.1919 Z" fill="#000000" fill-rule="nonzero" fill-opacity="1" /><polyline clip-path="url(#clip842)" style="stroke:#0000ff; stroke-linecap:round; stroke-linejoin:round; stroke-width:12; stroke-opacity:1; fill:none" points="328.087,1323.75 331.383,1323.75 334.678,1323.74 337.974,1323.74 341.269,1323.72 371.74,1322.97 402.211,1320.64 432.682,1316.53 463.153,1310.7 499.776,1301.67 536.4,1290.71 567.365,1280.17 598.329,1268.61 631.966,1255.05 665.602,1240.57 696.612,1226.5 727.622,1211.83 794.113,1178.62 871.15,1137.66 939.612,1099.45 999.646,1064.8 1065.1,1025.97 1130.94,985.975 1203.74,940.805 1273,897.026 1345.02,850.784 1405.65,811.354 1479.67,762.657 1547.47,717.565 1610.09,675.552 1673.53,632.664 1744.62,584.241 1809.04,540.063 1882.79,489.161 1951.09,441.751 2018.42,394.767 2083.79,348.936 2150.8,301.749 2224.22,249.831 2330.88,174.033 2352.76,158.432 "/>
</svg>
