<?xml version="1.0" encoding="utf-8"?>
<svg xmlns="http://www.w3.org/2000/svg" xmlns:xlink="http://www.w3.org/1999/xlink" width="600" height="400" viewBox="0 0 2400 1600">
<defs>
  <clipPath id="clip180">
    <rect x="0" y="0" width="2400" height="1600"/>
  </clipPath>
</defs>
<path clip-path="url(#clip180)" d="M0 1600 L2400 1600 L2400 0 L0 0  Z" fill="#ffffff" fill-rule="evenodd" fill-opacity="1"/>
<defs>
  <clipPath id="clip181">
    <rect x="480" y="0" width="1681" height="1600"/>
  </clipPath>
</defs>
<path clip-path="url(#clip180)" d="M475.675 1358.71 L2352.76 1358.71 L2352.76 123.472 L475.675 123.472  Z" fill="#ffffff" fill-rule="evenodd" fill-opacity="1"/>
<defs>
  <clipPath id="clip182">
    <rect x="475" y="123" width="1878" height="1236"/>
  </clipPath>
</defs>
<polyline clip-path="url(#clip182)" style="stroke:#000000; stroke-linecap:round; stroke-linejoin:round; stroke-width:2; stroke-opacity:0.1; fill:none" points="475.675,1358.71 475.675,123.472 "/>
<polyline clip-path="url(#clip182)" style="stroke:#000000; stroke-linecap:round; stroke-linejoin:round; stroke-width:2; stroke-opacity:0.1; fill:none" points="851.091,1358.71 851.091,123.472 "/>
<polyline clip-path="url(#clip182)" style="stroke:#000000; stroke-linecap:round; stroke-linejoin:round; stroke-width:2; stroke-opacity:0.1; fill:none" points="1226.51,1358.71 1226.51,123.472 "/>
<polyline clip-path="url(#clip182)" style="stroke:#000000; stroke-linecap:round; stroke-linejoin:round; stroke-width:2; stroke-opacity:0.1; fill:none" points="1601.92,1358.71 1601.92,123.472 "/>
<polyline clip-path="url(#clip182)" style="stroke:#000000; stroke-linecap:round; stroke-linejoin:round; stroke-width:2; stroke-opacity:0.1; fill:none" points="1977.34,1358.71 1977.34,123.472 "/>
<polyline clip-path="url(#clip182)" style="stroke:#000000; stroke-linecap:round; stroke-linejoin:round; stroke-width:2; stroke-opacity:0.1; fill:none" points="2352.76,1358.71 2352.76,123.472 "/>
<polyline clip-path="url(#clip180)" style="stroke:#000000; stroke-linecap:round; stroke-linejoin:round; stroke-width:4; stroke-opacity:1; fill:none" points="475.675,1358.71 2352.76,1358.71 "/>
<polyline clip-path="url(#clip180)" style="stroke:#000000; stroke-linecap:round; stroke-linejoin:round; stroke-width:4; stroke-opacity:1; fill:none" points="475.675,1358.71 475.675,1339.81 "/>
<polyline clip-path="url(#clip180)" style="stroke:#000000; stroke-linecap:round; stroke-linejoin:round; stroke-width:4; stroke-opacity:1; fill:none" points="851.091,1358.71 851.091,1339.81 "/>
<polyline clip-path="url(#clip180)" style="stroke:#000000; stroke-linecap:round; stroke-linejoin:round; stroke-width:4; stroke-opacity:1; fill:none" points="1226.51,1358.71 1226.51,1339.81 "/>
<polyline clip-path="url(#clip180)" style="stroke:#000000; stroke-linecap:round; stroke-linejoin:round; stroke-width:4; stroke-opacity:1; fill:none" points="1601.92,1358.71 1601.92,1339.81 "/>
<polyline clip-path="url(#clip180)" style="stroke:#000000; stroke-linecap:round; stroke-linejoin:round; stroke-width:4; stroke-opacity:1; fill:none" points="1977.34,1358.71 1977.34,1339.81 "/>
<polyline clip-path="url(#clip180)" style="stroke:#000000; stroke-linecap:round; stroke-linejoin:round; stroke-width:4; stroke-opacity:1; fill:none" points="2352.76,1358.71 2352.76,1339.81 "/>
<g clip-path="url(#clip180)">
<text style="fill:#000000; fill-opacity:1; font-family:Courier,Courier New,Lucida Sans Typewriter,Lucida Typewriter,monospace; font-size:118px; text-anchor:middle;" transform="rotate(0, 475.675, 1464)" x="475.675" y="1464">0</text>
</g>
<g clip-path="url(#clip180)">
<text style="fill:#000000; fill-opacity:1; font-family:Courier,Courier New,Lucida Sans Typewriter,Lucida Typewriter,monospace; font-size:118px; text-anchor:middle;" transform="rotate(0, 851.091, 1464)" x="851.091" y="1464">1</text>
</g>
<g clip-path="url(#clip180)">
<text style="fill:#000000; fill-opacity:1; font-family:Courier,Courier New,Lucida Sans Typewriter,Lucida Typewriter,monospace; font-size:118px; text-anchor:middle;" transform="rotate(0, 1226.51, 1464)" x="1226.51" y="1464">2</text>
</g>
<g clip-path="url(#clip180)">
<text style="fill:#000000; fill-opacity:1; font-family:Courier,Courier New,Lucida Sans Typewriter,Lucida Typewriter,monospace; font-size:118px; text-anchor:middle;" transform="rotate(0, 1601.92, 1464)" x="1601.92" y="1464">3</text>
</g>
<g clip-path="url(#clip180)">
<text style="fill:#000000; fill-opacity:1; font-family:Courier,Courier New,Lucida Sans Typewriter,Lucida Typewriter,monospace; font-size:118px; text-anchor:middle;" transform="rotate(0, 1977.34, 1464)" x="1977.34" y="1464">4</text>
</g>
<g clip-path="url(#clip180)">
<text style="fill:#000000; fill-opacity:1; font-family:Courier,Courier New,Lucida Sans Typewriter,Lucida Typewriter,monospace; font-size:118px; text-anchor:middle;" transform="rotate(0, 2352.76, 1464)" x="2352.76" y="1464">5</text>
</g>
<path clip-path="url(#clip180)" d="M1441.4 1532.87 L1420.31 1561.26 L1442.5 1591.21 L1431.19 1591.21 L1414.22 1568.29 L1397.24 1591.21 L1385.93 1591.21 L1408.59 1560.69 L1387.86 1532.87 L1399.16 1532.87 L1414.63 1553.66 L1430.1 1532.87 L1441.4 1532.87 Z" fill="#000000" fill-rule="nonzero" fill-opacity="1" /><polyline clip-path="url(#clip182)" style="stroke:#000000; stroke-linecap:round; stroke-linejoin:round; stroke-width:2; stroke-opacity:0.1; fill:none" points="475.675,1323.75 2352.76,1323.75 "/>
<polyline clip-path="url(#clip182)" style="stroke:#000000; stroke-linecap:round; stroke-linejoin:round; stroke-width:2; stroke-opacity:0.1; fill:none" points="475.675,1032.42 2352.76,1032.42 "/>
<polyline clip-path="url(#clip182)" style="stroke:#000000; stroke-linecap:round; stroke-linejoin:round; stroke-width:2; stroke-opacity:0.1; fill:none" points="475.675,741.09 2352.76,741.09 "/>
<polyline clip-path="url(#clip182)" style="stroke:#000000; stroke-linecap:round; stroke-linejoin:round; stroke-width:2; stroke-opacity:0.1; fill:none" points="475.675,449.761 2352.76,449.761 "/>
<polyline clip-path="url(#clip182)" style="stroke:#000000; stroke-linecap:round; stroke-linejoin:round; stroke-width:2; stroke-opacity:0.1; fill:none" points="475.675,158.432 2352.76,158.432 "/>
<polyline clip-path="url(#clip180)" style="stroke:#000000; stroke-linecap:round; stroke-linejoin:round; stroke-width:4; stroke-opacity:1; fill:none" points="475.675,1358.71 475.675,123.472 "/>
<polyline clip-path="url(#clip180)" style="stroke:#000000; stroke-linecap:round; stroke-linejoin:round; stroke-width:4; stroke-opacity:1; fill:none" points="475.675,1323.75 494.572,1323.75 "/>
<polyline clip-path="url(#clip180)" style="stroke:#000000; stroke-linecap:round; stroke-linejoin:round; stroke-width:4; stroke-opacity:1; fill:none" points="475.675,1032.42 494.572,1032.42 "/>
<polyline clip-path="url(#clip180)" style="stroke:#000000; stroke-linecap:round; stroke-linejoin:round; stroke-width:4; stroke-opacity:1; fill:none" points="475.675,741.09 494.572,741.09 "/>
<polyline clip-path="url(#clip180)" style="stroke:#000000; stroke-linecap:round; stroke-linejoin:round; stroke-width:4; stroke-opacity:1; fill:none" points="475.675,449.761 494.572,449.761 "/>
<polyline clip-path="url(#clip180)" style="stroke:#000000; stroke-linecap:round; stroke-linejoin:round; stroke-width:4; stroke-opacity:1; fill:none" points="475.675,158.432 494.572,158.432 "/>
<g clip-path="url(#clip180)">
<text style="fill:#000000; fill-opacity:1; font-family:Courier,Courier New,Lucida Sans Typewriter,Lucida Typewriter,monospace; font-size:118px; text-anchor:middle;" transform="rotate(0, 292.087, 1358.25)" x="292.087" y="1358.25">0.00</text>
</g>
<g clip-path="url(#clip180)">
<text style="fill:#000000; fill-opacity:1; font-family:Courier,Courier New,Lucida Sans Typewriter,Lucida Typewriter,monospace; font-size:118px; text-anchor:middle;" transform="rotate(0, 292.087, 1066.92)" x="292.087" y="1066.92">0.25</text>
</g>
<g clip-path="url(#clip180)">
<text style="fill:#000000; fill-opacity:1; font-family:Courier,Courier New,Lucida Sans Typewriter,Lucida Typewriter,monospace; font-size:118px; text-anchor:middle;" transform="rotate(0, 292.087, 775.59)" x="292.087" y="775.59">0.50</text>
</g>
<g clip-path="url(#clip180)">
<text style="fill:#000000; fill-opacity:1; font-family:Courier,Courier New,Lucida Sans Typewriter,Lucida Typewriter,monospace; font-size:118px; text-anchor:middle;" transform="rotate(0, 292.087, 484.261)" x="292.087" y="484.261">0.75</text>
</g>
<g clip-path="url(#clip180)">
<text style="fill:#000000; fill-opacity:1; font-family:Courier,Courier New,Lucida Sans Typewriter,Lucida Typewriter,monospace; font-size:118px; text-anchor:middle;" transform="rotate(0, 292.087, 192.932)" x="292.087" y="192.932">1.00</text>
</g>
<path clip-path="url(#clip180)" d="M13.4017 1034.16 L24.4954 1034.16 Q19.5475 1039.47 17.0996 1045.52 Q14.6517 1051.5 14.6517 1058.28 Q14.6517 1071.61 22.8287 1078.69 Q30.9537 1085.78 46.3703 1085.78 Q61.7348 1085.78 69.9118 1078.69 Q78.0368 1071.61 78.0368 1058.28 Q78.0368 1051.5 75.5889 1045.52 Q73.141 1039.47 68.1931 1034.16 L79.1826 1034.16 Q82.9326 1039.68 84.8076 1045.88 Q86.6826 1052.03 86.6826 1058.9 Q86.6826 1076.56 75.9014 1086.71 Q65.0681 1096.87 46.3703 1096.87 Q27.6204 1096.87 16.8392 1086.71 Q6.00592 1076.56 6.00592 1058.9 Q6.00592 1051.92 7.8809 1045.78 Q9.70381 1039.58 13.4017 1034.16 Z" fill="#000000" fill-rule="nonzero" fill-opacity="1" /><path clip-path="url(#clip180)" d="M16.0579 1007.39 L76.5264 1007.39 L76.5264 994.682 Q76.5264 978.589 69.2347 971.141 Q61.9431 963.641 46.214 963.641 Q30.5891 963.641 23.3496 971.141 Q16.0579 978.589 16.0579 994.682 L16.0579 1007.39 M7.41216 1017.91 L7.41216 996.297 Q7.41216 973.693 16.8392 963.12 Q26.2141 952.547 46.214 952.547 Q66.3181 952.547 75.7451 963.172 Q85.1722 973.797 85.1722 996.297 L85.1722 1017.91 L7.41216 1017.91 Z" fill="#000000" fill-rule="nonzero" fill-opacity="1" /><path clip-path="url(#clip180)" d="M7.41216 935.776 L7.41216 891.089 L16.2663 891.089 L16.2663 925.256 L39.1828 925.256 L39.1828 894.422 L48.0369 894.422 L48.0369 925.256 L85.1722 925.256 L85.1722 935.776 L7.41216 935.776 Z" fill="#000000" fill-rule="nonzero" fill-opacity="1" /><path clip-path="url(#clip180)" d="M26.8391 847.808 L26.8391 837.652 L75.7972 819.423 L26.8391 801.194 L26.8391 791.038 L85.1722 812.913 L85.1722 825.933 L26.8391 847.808 Z" fill="#000000" fill-rule="nonzero" fill-opacity="1" /><path clip-path="url(#clip180)" d="M28.5579 740.621 L37.6203 740.621 Q35.537 744.684 34.4953 749.059 Q33.4537 753.434 33.4537 758.121 Q33.4537 765.257 35.6412 768.85 Q37.8287 772.392 42.2036 772.392 Q45.537 772.392 47.464 769.84 Q49.339 767.288 51.0578 759.579 L51.7869 756.298 Q53.9744 746.09 57.9848 741.819 Q61.9431 737.496 69.0785 737.496 Q77.2035 737.496 81.943 743.955 Q86.6826 750.361 86.6826 761.611 Q86.6826 766.298 85.7451 771.402 Q84.8597 776.454 83.0368 782.079 L73.141 782.079 Q75.9014 776.767 77.3076 771.611 Q78.6618 766.454 78.6618 761.402 Q78.6618 754.632 76.3701 750.986 Q74.0264 747.34 69.8077 747.34 Q65.9014 747.34 63.8181 749.996 Q61.7348 752.6 59.8077 761.507 L59.0265 764.84 Q57.1515 773.746 53.2973 777.704 Q49.3911 781.663 42.6203 781.663 Q34.3912 781.663 29.912 775.829 Q25.4329 769.996 25.4329 759.267 Q25.4329 753.954 26.2141 749.267 Q26.9954 744.58 28.5579 740.621 Z" fill="#000000" fill-rule="nonzero" fill-opacity="1" /><path clip-path="url(#clip180)" d="M71.9431 720.882 L71.9431 709.892 L85.1722 709.892 L85.1722 720.882 L71.9431 720.882 Z" fill="#000000" fill-rule="nonzero" fill-opacity="1" /><path clip-path="url(#clip180)" d="M7.41216 654.007 L7.41216 604.841 L16.2663 604.841 L16.2663 643.486 L39.287 643.486 L39.287 606.455 L48.1411 606.455 L48.1411 643.486 L76.318 643.486 L76.318 603.903 L85.1722 603.903 L85.1722 654.007 L7.41216 654.007 Z" fill="#000000" fill-rule="nonzero" fill-opacity="1" /><path clip-path="url(#clip180)" d="M13.4017 528.383 L24.4954 528.383 Q19.5475 533.695 17.0996 539.737 Q14.6517 545.726 14.6517 552.497 Q14.6517 565.83 22.8287 572.914 Q30.9537 579.997 46.3703 579.997 Q61.7348 579.997 69.9118 572.914 Q78.0368 565.83 78.0368 552.497 Q78.0368 545.726 75.5889 539.737 Q73.141 533.695 68.1931 528.383 L79.1826 528.383 Q82.9326 533.904 84.8076 540.101 Q86.6826 546.247 86.6826 553.122 Q86.6826 570.778 75.9014 580.935 Q65.0681 591.091 46.3703 591.091 Q27.6204 591.091 16.8392 580.935 Q6.00592 570.778 6.00592 553.122 Q6.00592 546.143 7.8809 539.997 Q9.70381 533.799 13.4017 528.383 Z" fill="#000000" fill-rule="nonzero" fill-opacity="1" /><path clip-path="url(#clip180)" d="M16.0579 501.612 L76.5264 501.612 L76.5264 488.904 Q76.5264 472.81 69.2347 465.362 Q61.9431 457.862 46.214 457.862 Q30.5891 457.862 23.3496 465.362 Q16.0579 472.81 16.0579 488.904 L16.0579 501.612 M7.41216 512.133 L7.41216 490.518 Q7.41216 467.914 16.8392 457.341 Q26.2141 446.769 46.214 446.769 Q66.3181 446.769 75.7451 457.394 Q85.1722 468.019 85.1722 490.518 L85.1722 512.133 L7.41216 512.133 Z" fill="#000000" fill-rule="nonzero" fill-opacity="1" /><path clip-path="url(#clip180)" d="M7.41216 429.998 L7.41216 385.311 L16.2663 385.311 L16.2663 419.477 L39.1828 419.477 L39.1828 388.644 L48.0369 388.644 L48.0369 419.477 L85.1722 419.477 L85.1722 429.998 L7.41216 429.998 Z" fill="#000000" fill-rule="nonzero" fill-opacity="1" /><path clip-path="url(#clip180)" d="M967.461 63.9476 L967.461 47.7034 L954.093 47.7034 L954.093 40.9789 L975.563 40.9789 L975.563 66.9452 Q970.823 70.3075 965.112 72.0494 Q959.4 73.7508 952.919 73.7508 Q938.74 73.7508 930.72 65.4869 Q922.739 57.1826 922.739 42.3968 Q922.739 27.5705 930.72 19.3066 Q938.74 11.0023 952.919 11.0023 Q958.833 11.0023 964.14 12.4606 Q969.487 13.9189 973.983 16.7545 L973.983 25.464 Q969.446 21.6156 964.342 19.6712 Q959.238 17.7268 953.607 17.7268 Q942.508 17.7268 936.917 23.9246 Q931.368 30.1225 931.368 42.3968 Q931.368 54.6305 936.917 60.8284 Q942.508 67.0263 953.607 67.0263 Q957.942 67.0263 961.344 66.2971 Q964.747 65.5274 967.461 63.9476 Z" fill="#000000" fill-rule="nonzero" fill-opacity="1" /><path clip-path="url(#clip180)" d="M1028.99 48.0275 L1028.99 51.6733 L994.724 51.6733 Q995.21 59.3701 999.342 63.421 Q1003.51 67.4314 1010.93 67.4314 Q1015.22 67.4314 1019.23 66.3781 Q1023.28 65.3249 1027.25 63.2184 L1027.25 70.267 Q1023.24 71.9684 1019.03 72.8596 Q1014.82 73.7508 1010.48 73.7508 Q999.625 73.7508 993.266 67.4314 Q986.946 61.1119 986.946 50.3365 Q986.946 39.1965 992.941 32.6746 Q998.977 26.1121 1009.19 26.1121 Q1018.34 26.1121 1023.65 32.0264 Q1028.99 37.9003 1028.99 48.0275 M1021.54 45.84 Q1021.46 39.7232 1018.1 36.0774 Q1014.78 32.4315 1009.27 32.4315 Q1003.03 32.4315 999.261 35.9558 Q995.534 39.4801 994.967 45.8805 L1021.54 45.84 Z" fill="#000000" fill-rule="nonzero" fill-opacity="1" /><path clip-path="url(#clip180)" d="M1078.94 45.1919 L1078.94 72.576 L1071.49 72.576 L1071.49 45.4349 Q1071.49 38.994 1068.98 35.7938 Q1066.47 32.5936 1061.44 32.5936 Q1055.41 32.5936 1051.92 36.4419 Q1048.44 40.2903 1048.44 46.9338 L1048.44 72.576 L1040.94 72.576 L1040.94 27.2059 L1048.44 27.2059 L1048.44 34.2544 Q1051.11 30.163 1054.72 28.1376 Q1058.36 26.1121 1063.1 26.1121 Q1070.92 26.1121 1074.93 30.9732 Q1078.94 35.7938 1078.94 45.1919 Z" fill="#000000" fill-rule="nonzero" fill-opacity="1" /><path clip-path="url(#clip180)" d="M1135.37 63.9476 L1135.37 47.7034 L1122 47.7034 L1122 40.9789 L1143.47 40.9789 L1143.47 66.9452 Q1138.73 70.3075 1133.02 72.0494 Q1127.31 73.7508 1120.83 73.7508 Q1106.65 73.7508 1098.63 65.4869 Q1090.65 57.1826 1090.65 42.3968 Q1090.65 27.5705 1098.63 19.3066 Q1106.65 11.0023 1120.83 11.0023 Q1126.74 11.0023 1132.05 12.4606 Q1137.4 13.9189 1141.89 16.7545 L1141.89 25.464 Q1137.36 21.6156 1132.25 19.6712 Q1127.15 17.7268 1121.52 17.7268 Q1110.42 17.7268 1104.83 23.9246 Q1099.28 30.1225 1099.28 42.3968 Q1099.28 54.6305 1104.83 60.8284 Q1110.42 67.0263 1121.52 67.0263 Q1125.85 67.0263 1129.25 66.2971 Q1132.66 65.5274 1135.37 63.9476 Z" fill="#000000" fill-rule="nonzero" fill-opacity="1" /><path clip-path="url(#clip180)" d="M1178.72 49.7694 Q1169.68 49.7694 1166.2 51.8354 Q1162.71 53.9013 1162.71 58.8839 Q1162.71 62.8538 1165.31 65.2034 Q1167.94 67.5124 1172.44 67.5124 Q1178.63 67.5124 1182.36 63.1374 Q1186.13 58.7219 1186.13 51.4303 L1186.13 49.7694 L1178.72 49.7694 M1193.58 46.6907 L1193.58 72.576 L1186.13 72.576 L1186.13 65.6895 Q1183.58 69.8214 1179.77 71.8063 Q1175.96 73.7508 1170.45 73.7508 Q1163.48 73.7508 1159.35 69.8619 Q1155.26 65.9325 1155.26 59.3701 Q1155.26 51.7138 1160.37 47.825 Q1165.51 43.9361 1175.68 43.9361 L1186.13 43.9361 L1186.13 43.2069 Q1186.13 38.0623 1182.73 35.2672 Q1179.36 32.4315 1173.25 32.4315 Q1169.36 32.4315 1165.67 33.3632 Q1161.99 34.295 1158.58 36.1584 L1158.58 29.2718 Q1162.67 27.692 1166.52 26.9223 Q1170.37 26.1121 1174.02 26.1121 Q1183.86 26.1121 1188.72 31.2163 Q1193.58 36.3204 1193.58 46.6907 Z" fill="#000000" fill-rule="nonzero" fill-opacity="1" /><path clip-path="url(#clip180)" d="M1244.26 35.9153 Q1247.05 30.8922 1250.94 28.5022 Q1254.83 26.1121 1260.1 26.1121 Q1267.19 26.1121 1271.04 31.0947 Q1274.88 36.0368 1274.88 45.1919 L1274.88 72.576 L1267.39 72.576 L1267.39 45.4349 Q1267.39 38.913 1265.08 35.7533 Q1262.77 32.5936 1258.03 32.5936 Q1252.24 32.5936 1248.88 36.4419 Q1245.52 40.2903 1245.52 46.9338 L1245.52 72.576 L1238.02 72.576 L1238.02 45.4349 Q1238.02 38.8725 1235.71 35.7533 Q1233.4 32.5936 1228.58 32.5936 Q1222.87 32.5936 1219.51 36.4824 Q1216.15 40.3308 1216.15 46.9338 L1216.15 72.576 L1208.65 72.576 L1208.65 27.2059 L1216.15 27.2059 L1216.15 34.2544 Q1218.7 30.082 1222.26 28.0971 Q1225.83 26.1121 1230.73 26.1121 Q1235.67 26.1121 1239.11 28.6237 Q1242.6 31.1352 1244.26 35.9153 Z" fill="#000000" fill-rule="nonzero" fill-opacity="1" /><path clip-path="url(#clip180)" d="M1325.08 35.9153 Q1327.87 30.8922 1331.76 28.5022 Q1335.65 26.1121 1340.91 26.1121 Q1348 26.1121 1351.85 31.0947 Q1355.7 36.0368 1355.7 45.1919 L1355.7 72.576 L1348.21 72.576 L1348.21 45.4349 Q1348.21 38.913 1345.9 35.7533 Q1343.59 32.5936 1338.85 32.5936 Q1333.06 32.5936 1329.69 36.4419 Q1326.33 40.2903 1326.33 46.9338 L1326.33 72.576 L1318.84 72.576 L1318.84 45.4349 Q1318.84 38.8725 1316.53 35.7533 Q1314.22 32.5936 1309.4 32.5936 Q1303.69 32.5936 1300.32 36.4824 Q1296.96 40.3308 1296.96 46.9338 L1296.96 72.576 L1289.47 72.576 L1289.47 27.2059 L1296.96 27.2059 L1296.96 34.2544 Q1299.51 30.082 1303.08 28.0971 Q1306.64 26.1121 1311.55 26.1121 Q1316.49 26.1121 1319.93 28.6237 Q1323.41 31.1352 1325.08 35.9153 Z" fill="#000000" fill-rule="nonzero" fill-opacity="1" /><path clip-path="url(#clip180)" d="M1391.19 49.7694 Q1382.15 49.7694 1378.67 51.8354 Q1375.18 53.9013 1375.18 58.8839 Q1375.18 62.8538 1377.78 65.2034 Q1380.41 67.5124 1384.91 67.5124 Q1391.1 67.5124 1394.83 63.1374 Q1398.6 58.7219 1398.6 51.4303 L1398.6 49.7694 L1391.19 49.7694 M1406.05 46.6907 L1406.05 72.576 L1398.6 72.576 L1398.6 65.6895 Q1396.05 69.8214 1392.24 71.8063 Q1388.43 73.7508 1382.92 73.7508 Q1375.95 73.7508 1371.82 69.8619 Q1367.73 65.9325 1367.73 59.3701 Q1367.73 51.7138 1372.84 47.825 Q1377.98 43.9361 1388.15 43.9361 L1398.6 43.9361 L1398.6 43.2069 Q1398.6 38.0623 1395.2 35.2672 Q1391.83 32.4315 1385.72 32.4315 Q1381.83 32.4315 1378.14 33.3632 Q1374.46 34.295 1371.05 36.1584 L1371.05 29.2718 Q1375.14 27.692 1378.99 26.9223 Q1382.84 26.1121 1386.49 26.1121 Q1396.33 26.1121 1401.19 31.2163 Q1406.05 36.3204 1406.05 46.6907 Z" fill="#000000" fill-rule="nonzero" fill-opacity="1" /><path clip-path="url(#clip180)" d="M1477.63 34.0924 L1477.63 9.54393 L1485.09 9.54393 L1485.09 72.576 L1477.63 72.576 L1477.63 65.7705 Q1475.28 69.8214 1471.68 71.8063 Q1468.11 73.7508 1463.09 73.7508 Q1454.87 73.7508 1449.68 67.1883 Q1444.54 60.6258 1444.54 49.9314 Q1444.54 39.2371 1449.68 32.6746 Q1454.87 26.1121 1463.09 26.1121 Q1468.11 26.1121 1471.68 28.0971 Q1475.28 30.0415 1477.63 34.0924 M1452.23 49.9314 Q1452.23 58.1548 1455.6 62.8538 Q1459 67.5124 1464.91 67.5124 Q1470.83 67.5124 1474.23 62.8538 Q1477.63 58.1548 1477.63 49.9314 Q1477.63 41.7081 1474.23 37.0496 Q1470.83 32.3505 1464.91 32.3505 Q1459 32.3505 1455.6 37.0496 Q1452.23 41.7081 1452.23 49.9314 Z" fill="#000000" fill-rule="nonzero" fill-opacity="1" /><path clip-path="url(#clip180)" d="M1500.44 27.2059 L1507.89 27.2059 L1507.89 72.576 L1500.44 72.576 L1500.44 27.2059 M1500.44 9.54393 L1507.89 9.54393 L1507.89 18.9825 L1500.44 18.9825 L1500.44 9.54393 Z" fill="#000000" fill-rule="nonzero" fill-opacity="1" /><path clip-path="url(#clip180)" d="M1552.41 28.5427 L1552.41 35.5912 Q1549.25 33.9709 1545.85 33.1607 Q1542.45 32.3505 1538.8 32.3505 Q1533.25 32.3505 1530.46 34.0519 Q1527.7 35.7533 1527.7 39.156 Q1527.7 41.7486 1529.69 43.2475 Q1531.67 44.7058 1537.67 46.0426 L1540.22 46.6097 Q1548.16 48.3111 1551.48 51.4303 Q1554.84 54.509 1554.84 60.0587 Q1554.84 66.3781 1549.82 70.0644 Q1544.84 73.7508 1536.09 73.7508 Q1532.44 73.7508 1528.47 73.0216 Q1524.54 72.3329 1520.17 70.9151 L1520.17 63.2184 Q1524.3 65.3654 1528.31 66.4591 Q1532.32 67.5124 1536.25 67.5124 Q1541.51 67.5124 1544.35 65.73 Q1547.19 63.9071 1547.19 60.6258 Q1547.19 57.5877 1545.12 55.9673 Q1543.09 54.3469 1536.17 52.8481 L1533.58 52.2405 Q1526.65 50.7821 1523.57 47.7845 Q1520.49 44.7463 1520.49 39.4801 Q1520.49 33.0797 1525.03 29.5959 Q1529.56 26.1121 1537.91 26.1121 Q1542.04 26.1121 1545.69 26.7198 Q1549.33 27.3274 1552.41 28.5427 Z" fill="#000000" fill-rule="nonzero" fill-opacity="1" /><path clip-path="url(#clip180)" d="M1574.08 14.324 L1574.08 27.2059 L1589.44 27.2059 L1589.44 32.9987 L1574.08 32.9987 L1574.08 57.6282 Q1574.08 63.1779 1575.58 64.7578 Q1577.12 66.3376 1581.78 66.3376 L1589.44 66.3376 L1589.44 72.576 L1581.78 72.576 Q1573.15 72.576 1569.87 69.3758 Q1566.59 66.1351 1566.59 57.6282 L1566.59 32.9987 L1561.12 32.9987 L1561.12 27.2059 L1566.59 27.2059 L1566.59 14.324 L1574.08 14.324 Z" fill="#000000" fill-rule="nonzero" fill-opacity="1" /><path clip-path="url(#clip180)" d="M1625.53 34.1734 Q1624.27 33.4443 1622.78 33.1202 Q1621.32 32.7556 1619.54 32.7556 Q1613.22 32.7556 1609.81 36.8875 Q1606.45 40.9789 1606.45 48.6757 L1606.45 72.576 L1598.96 72.576 L1598.96 27.2059 L1606.45 27.2059 L1606.45 34.2544 Q1608.8 30.1225 1612.57 28.1376 Q1616.34 26.1121 1621.72 26.1121 Q1622.49 26.1121 1623.42 26.2337 Q1624.36 26.3147 1625.49 26.5172 L1625.53 34.1734 Z" fill="#000000" fill-rule="nonzero" fill-opacity="1" /><path clip-path="url(#clip180)" d="M1633.35 27.2059 L1640.8 27.2059 L1640.8 72.576 L1633.35 72.576 L1633.35 27.2059 M1633.35 9.54393 L1640.8 9.54393 L1640.8 18.9825 L1633.35 18.9825 L1633.35 9.54393 Z" fill="#000000" fill-rule="nonzero" fill-opacity="1" /><path clip-path="url(#clip180)" d="M1688.97 49.9314 Q1688.97 41.7081 1685.57 37.0496 Q1682.2 32.3505 1676.29 32.3505 Q1670.37 32.3505 1666.97 37.0496 Q1663.61 41.7081 1663.61 49.9314 Q1663.61 58.1548 1666.97 62.8538 Q1670.37 67.5124 1676.29 67.5124 Q1682.2 67.5124 1685.57 62.8538 Q1688.97 58.1548 1688.97 49.9314 M1663.61 34.0924 Q1665.96 30.0415 1669.52 28.0971 Q1673.13 26.1121 1678.11 26.1121 Q1686.38 26.1121 1691.52 32.6746 Q1696.71 39.2371 1696.71 49.9314 Q1696.71 60.6258 1691.52 67.1883 Q1686.38 73.7508 1678.11 73.7508 Q1673.13 73.7508 1669.52 71.8063 Q1665.96 69.8214 1663.61 65.7705 L1663.61 72.576 L1656.11 72.576 L1656.11 9.54393 L1663.61 9.54393 L1663.61 34.0924 Z" fill="#000000" fill-rule="nonzero" fill-opacity="1" /><path clip-path="url(#clip180)" d="M1708.29 54.671 L1708.29 27.2059 L1715.74 27.2059 L1715.74 54.3874 Q1715.74 60.8284 1718.26 64.0691 Q1720.77 67.2693 1725.79 67.2693 Q1731.83 67.2693 1735.31 63.421 Q1738.83 59.5726 1738.83 52.9291 L1738.83 27.2059 L1746.29 27.2059 L1746.29 72.576 L1738.83 72.576 L1738.83 65.6084 Q1736.12 69.7404 1732.52 71.7658 Q1728.95 73.7508 1724.21 73.7508 Q1716.39 73.7508 1712.34 68.8897 Q1708.29 64.0286 1708.29 54.671 M1727.05 26.1121 L1727.05 26.1121 Z" fill="#000000" fill-rule="nonzero" fill-opacity="1" /><path clip-path="url(#clip180)" d="M1769.01 14.324 L1769.01 27.2059 L1784.37 27.2059 L1784.37 32.9987 L1769.01 32.9987 L1769.01 57.6282 Q1769.01 63.1779 1770.51 64.7578 Q1772.05 66.3376 1776.71 66.3376 L1784.37 66.3376 L1784.37 72.576 L1776.71 72.576 Q1768.08 72.576 1764.8 69.3758 Q1761.52 66.1351 1761.52 57.6282 L1761.52 32.9987 L1756.05 32.9987 L1756.05 27.2059 L1761.52 27.2059 L1761.52 14.324 L1769.01 14.324 Z" fill="#000000" fill-rule="nonzero" fill-opacity="1" /><path clip-path="url(#clip180)" d="M1794.17 27.2059 L1801.62 27.2059 L1801.62 72.576 L1794.17 72.576 L1794.17 27.2059 M1794.17 9.54393 L1801.62 9.54393 L1801.62 18.9825 L1794.17 18.9825 L1794.17 9.54393 Z" fill="#000000" fill-rule="nonzero" fill-opacity="1" /><path clip-path="url(#clip180)" d="M1834.8 32.4315 Q1828.81 32.4315 1825.32 37.1306 Q1821.84 41.7891 1821.84 49.9314 Q1821.84 58.0738 1825.28 62.7728 Q1828.76 67.4314 1834.8 67.4314 Q1840.76 67.4314 1844.24 62.7323 Q1847.72 58.0333 1847.72 49.9314 Q1847.72 41.8701 1844.24 37.1711 Q1840.76 32.4315 1834.8 32.4315 M1834.8 26.1121 Q1844.52 26.1121 1850.07 32.4315 Q1855.62 38.7509 1855.62 49.9314 Q1855.62 61.0714 1850.07 67.4314 Q1844.52 73.7508 1834.8 73.7508 Q1825.04 73.7508 1819.49 67.4314 Q1813.98 61.0714 1813.98 49.9314 Q1813.98 38.7509 1819.49 32.4315 Q1825.04 26.1121 1834.8 26.1121 Z" fill="#000000" fill-rule="nonzero" fill-opacity="1" /><path clip-path="url(#clip180)" d="M1905.69 45.1919 L1905.69 72.576 L1898.24 72.576 L1898.24 45.4349 Q1898.24 38.994 1895.73 35.7938 Q1893.21 32.5936 1888.19 32.5936 Q1882.16 32.5936 1878.67 36.4419 Q1875.19 40.2903 1875.19 46.9338 L1875.19 72.576 L1867.69 72.576 L1867.69 27.2059 L1875.19 27.2059 L1875.19 34.2544 Q1877.86 30.163 1881.47 28.1376 Q1885.11 26.1121 1889.85 26.1121 Q1897.67 26.1121 1901.68 30.9732 Q1905.69 35.7938 1905.69 45.1919 Z" fill="#000000" fill-rule="nonzero" fill-opacity="1" /><polyline clip-path="url(#clip182)" style="stroke:#808080; stroke-linecap:round; stroke-linejoin:round; stroke-width:12; stroke-opacity:1; fill:none" points="475.675,1323.75 478.73,1323.75 481.785,1323.75 484.84,1323.75 487.895,1323.75 516.145,1321.42 544.395,1319.09 558.52,1316.76 572.645,1314.43 579.707,1312.1 586.77,1309.76 590.301,1306.27 593.832,1301.61 597.363,1298.11 600.895,1296.95 609.383,1286.46 617.871,1278.3 626.36,1271.31 634.848,1260.82 643.337,1250.33 651.825,1237.51 660.314,1227.03 668.802,1215.37 675.979,1204.89 683.156,1192.07 686.745,1188.57 690.333,1182.74 692.127,1181.58 693.921,1176.92 695.716,1172.26 697.51,1167.6 701.098,1164.1 704.687,1159.44 708.275,1157.11 711.864,1151.28 713.658,1148.95 715.452,1143.12 717.246,1137.3 719.041,1130.31 722.629,1124.48 726.217,1119.82 728.167,1116.32 730.116,1111.66 732.065,1111.66 734.014,1110.5 735.963,1107 737.912,1103.5 739.861,1097.68 741.81,1094.18 743.759,1091.85 745.708,1088.35 746.682,1087.19 747.657,1087.19 748.631,1083.69 749.606,1081.36 750.58,1076.7 751.555,1073.21 752.529,1069.71 753.504,1067.38 753.991,1060.39 754.478,1060.39 754.966,1060.39 755.453,1060.39 756.427,1059.22 757.402,1059.22 759.351,1052.23 761.3,1045.24 763.249,1041.74 765.198,1038.25 766.173,1034.75 767.147,1028.92 767.634,1028.92 768.122,1024.26 768.609,1024.26 769.096,1024.26 771.045,1019.6 772.994,1016.1 776.892,1010.28 780.79,1004.45 784.688,993.964 788.586,985.806 789.485,984.641 790.383,983.476 790.833,983.476 791.282,982.311 791.731,979.98 792.18,976.484 793.079,976.484 793.977,975.319 794.875,972.988 795.774,969.492 797.571,963.665 799.367,956.674 801.164,953.178 802.961,949.682 804.758,943.855 806.555,940.359 808.352,939.194 810.148,935.698 811.047,932.202 811.945,931.037 812.844,928.706 813.742,927.541 814.191,925.21 814.641,922.879 815.09,921.714 815.539,914.722 815.988,912.392 816.437,910.061 816.887,908.896 817.336,907.73 819.133,903.069 820.929,898.408 822.726,893.746 824.523,889.085 825.422,883.259 826.32,879.763 826.769,877.432 827.218,875.101 827.668,875.101 828.117,875.101 829.015,872.771 829.914,871.605 830.812,868.109 831.71,864.614 835.304,855.291 838.898,844.803 840.695,840.142 842.491,833.15 843.39,831.985 844.288,831.985 845.187,830.819 846.085,828.489 848.012,822.662 849.938,815.67 851.864,809.844 853.791,805.182 855.717,801.686 857.644,795.86 859.57,787.703 861.496,781.876 862.46,781.876 863.423,780.711 864.386,779.545 865.349,778.38 865.831,777.215 866.312,776.049 866.794,771.388 867.275,769.058 868.239,766.727 869.202,764.396 869.683,763.231 870.165,759.735 870.647,759.735 871.128,759.735 871.61,757.404 872.091,756.239 872.573,750.413 873.055,750.413 874.981,748.082 876.907,743.421 878.834,738.759 880.76,732.933 882.687,729.437 884.613,725.941 886.539,723.61 888.466,717.784 890.392,711.957 892.319,706.13 894.245,702.635 896.171,697.973 897.135,697.973 898.098,697.973 899.061,696.808 900.024,696.808 900.987,692.147 901.951,689.816 902.914,687.485 903.877,685.155 905.803,679.328 907.73,676.998 912.194,667.675 916.657,656.022 921.121,644.369 925.585,633.881 927.817,631.55 930.049,628.054 932.281,622.228 934.513,616.401 935.629,612.905 936.745,609.409 937.303,607.079 937.861,604.748 938.419,604.748 938.977,604.748 940.093,598.921 941.209,594.26 942.325,589.599 943.44,584.938 944.556,582.607 945.672,582.607 946.788,580.276 947.904,576.78 950.136,572.119 952.368,566.292 956.832,555.805 961.296,545.317 965.76,533.664 970.224,525.506 971.339,523.176 972.455,523.176 973.571,518.514 974.687,513.853 975.803,512.688 976.919,511.523 978.035,508.027 979.151,503.365 979.647,498.704 980.143,497.539 980.639,497.539 981.135,496.373 982.126,496.373 983.118,492.878 985.102,489.382 987.085,488.216 988.077,488.216 989.069,487.051 990.06,484.72 991.052,480.059 992.044,476.563 993.035,471.902 993.531,471.902 994.027,471.902 994.523,469.571 995.019,468.406 997.002,460.249 998.986,455.587 1000.97,450.926 1002.95,447.43 1006.92,439.273 1010.89,432.281 1012.87,428.785 1014.85,427.62 1016.84,422.959 1018.82,419.463 1022.79,413.636 1026.75,410.14 1030.72,403.148 1034.69,398.487 1036.67,396.156 1038.66,391.495 1040.64,386.834 1042.62,382.172 1056.54,363.527 1070.45,344.882 1077.41,335.56 1084.37,330.898 1091.32,327.403 1098.28,322.741 1100.18,319.245 1102.07,316.915 1103.97,316.915 1105.87,314.584 1109.66,311.088 1113.45,311.088 1115.35,309.923 1117.24,308.757 1117.72,306.427 1118.19,302.931 1118.67,300.6 1119.14,299.435 1120.09,298.27 1121.04,297.104 1122.93,295.939 1124.83,293.608 1126.73,292.443 1128.62,288.947 1132.41,281.955 1136.21,277.294 1140,276.129 1143.79,272.633 1147.58,270.302 1151.38,266.806 1155.17,264.475 1158.96,263.31 1174.22,246.996 1189.48,230.681 1197.11,222.524 1204.75,216.697 1212.38,212.036 1220.01,207.375 1253.75,195.722 1287.5,181.738 1303.55,174.746 1319.6,168.919 1335.66,167.754 1351.71,166.589 1418.48,161.928 1474.69,161.928 1543.31,160.762 1606.17,159.597 1664.23,158.432 1723.04,158.432 1788.95,158.432 1848.67,158.432 1917.05,158.432 1980.37,158.432 2042.79,158.432 2103.39,158.432 2165.52,158.432 2233.59,158.432 2332.47,158.432 2352.76,158.432 "/>
<polyline clip-path="url(#clip182)" style="stroke:#0000ff; stroke-linecap:round; stroke-linejoin:round; stroke-width:12; stroke-opacity:1; fill:none" points="475.675,1323.75 478.73,1323.75 481.785,1323.74 484.84,1323.74 487.895,1323.72 502.02,1323.45 516.145,1322.66 530.27,1321.09 544.395,1318.48 558.52,1314.6 572.645,1309.23 586.77,1302.19 600.895,1293.31 609.383,1287.03 617.871,1280.01 626.36,1272.24 634.848,1263.7 643.337,1254.37 651.825,1244.26 660.314,1233.37 668.802,1221.68 683.156,1200.15 697.51,1176.45 711.864,1150.66 726.217,1122.91 741.81,1090.71 757.402,1056.57 772.994,1020.74 788.586,983.482 817.336,911.977 846.085,838.365 876.907,759.142 907.73,681.616 925.585,638.202 943.44,596.263 961.296,556.054 979.151,517.786 995.019,485.541 1010.89,455.046 1026.75,426.36 1042.62,399.52 1056.54,377.51 1070.45,356.922 1084.37,337.738 1098.28,319.93 1113.45,302.04 1128.62,285.684 1143.79,270.797 1158.96,257.304 1174.22,245.06 1189.48,234.064 1204.75,224.23 1220.01,215.474 1236.88,206.943 1253.75,199.511 1270.62,193.068 1287.5,187.511 1319.6,179.033 1351.71,172.803 1385.1,168.154 1418.48,164.9 1446.59,162.963 1474.69,161.568 1543.31,159.648 1606.17,158.912 1664.23,158.625 1723.04,158.505 1788.95,158.455 1848.67,158.439 1917.05,158.434 1980.37,158.432 2042.79,158.432 2103.39,158.432 2165.52,158.432 2233.59,158.432 2332.47,158.432 2352.76,158.432 "/>
<path clip-path="url(#clip180)" d="M538.244 320.167 L845.373 320.167 L845.373 164.647 L538.244 164.647  Z" fill="#ffffff" fill-rule="evenodd" fill-opacity="1"/>
<polyline clip-path="url(#clip180)" style="stroke:#000000; stroke-linecap:round; stroke-linejoin:round; stroke-width:4; stroke-opacity:1; fill:none" points="538.244,320.167 845.373,320.167 845.373,164.647 538.244,164.647 538.244,320.167 "/>
<polyline clip-path="url(#clip180)" style="stroke:#808080; stroke-linecap:round; stroke-linejoin:round; stroke-width:12; stroke-opacity:1; fill:none" points="559.1,216.487 684.239,216.487 "/>
<path clip-path="url(#clip180)" d="M705.096 199.207 L726.947 199.207 L726.947 203.142 L709.771 203.142 L709.771 213.373 L726.23 213.373 L726.23 217.308 L709.771 217.308 L709.771 229.831 L727.364 229.831 L727.364 233.767 L705.096 233.767 L705.096 199.207 Z" fill="#000000" fill-rule="nonzero" fill-opacity="1" /><path clip-path="url(#clip180)" d="M760.929 201.869 L760.929 206.799 Q758.568 204.6 755.882 203.512 Q753.22 202.424 750.211 202.424 Q744.285 202.424 741.137 206.058 Q737.989 209.67 737.989 216.521 Q737.989 223.35 741.137 226.984 Q744.285 230.595 750.211 230.595 Q753.22 230.595 755.882 229.507 Q758.568 228.419 760.929 226.22 L760.929 231.105 Q758.475 232.771 755.72 233.605 Q752.989 234.438 749.933 234.438 Q742.086 234.438 737.572 229.646 Q733.058 224.832 733.058 216.521 Q733.058 208.188 737.572 203.396 Q742.086 198.582 749.933 198.582 Q753.035 198.582 755.767 199.415 Q758.521 200.225 760.929 201.869 Z" fill="#000000" fill-rule="nonzero" fill-opacity="1" /><path clip-path="url(#clip180)" d="M772.827 203.049 L772.827 229.924 L778.475 229.924 Q785.628 229.924 788.938 226.683 Q792.271 223.443 792.271 216.452 Q792.271 209.508 788.938 206.29 Q785.628 203.049 778.475 203.049 L772.827 203.049 M768.151 199.207 L777.757 199.207 Q787.803 199.207 792.503 203.396 Q797.202 207.563 797.202 216.452 Q797.202 225.387 792.479 229.577 Q787.757 233.767 777.757 233.767 L768.151 233.767 L768.151 199.207 Z" fill="#000000" fill-rule="nonzero" fill-opacity="1" /><path clip-path="url(#clip180)" d="M804.655 199.207 L824.516 199.207 L824.516 203.142 L809.331 203.142 L809.331 213.327 L823.035 213.327 L823.035 217.262 L809.331 217.262 L809.331 233.767 L804.655 233.767 L804.655 199.207 Z" fill="#000000" fill-rule="nonzero" fill-opacity="1" /><polyline clip-path="url(#clip180)" style="stroke:#0000ff; stroke-linecap:round; stroke-linejoin:round; stroke-width:12; stroke-opacity:1; fill:none" points="559.1,268.327 684.239,268.327 "/>
<path clip-path="url(#clip180)" d="M732.966 253.709 L732.966 258.639 Q730.605 256.44 727.92 255.352 Q725.258 254.264 722.248 254.264 Q716.322 254.264 713.174 257.898 Q710.026 261.51 710.026 268.361 Q710.026 275.19 713.174 278.824 Q716.322 282.435 722.248 282.435 Q725.258 282.435 727.92 281.347 Q730.605 280.259 732.966 278.06 L732.966 282.945 Q730.512 284.611 727.758 285.445 Q725.026 286.278 721.971 286.278 Q714.123 286.278 709.609 281.486 Q705.096 276.672 705.096 268.361 Q705.096 260.028 709.609 255.236 Q714.123 250.422 721.971 250.422 Q725.072 250.422 727.804 251.255 Q730.558 252.065 732.966 253.709 Z" fill="#000000" fill-rule="nonzero" fill-opacity="1" /><path clip-path="url(#clip180)" d="M744.864 254.889 L744.864 281.764 L750.512 281.764 Q757.665 281.764 760.975 278.523 Q764.308 275.283 764.308 268.292 Q764.308 261.348 760.975 258.13 Q757.665 254.889 750.512 254.889 L744.864 254.889 M740.188 251.047 L749.794 251.047 Q759.841 251.047 764.54 255.236 Q769.239 259.403 769.239 268.292 Q769.239 277.227 764.517 281.417 Q759.794 285.607 749.794 285.607 L740.188 285.607 L740.188 251.047 Z" fill="#000000" fill-rule="nonzero" fill-opacity="1" /><path clip-path="url(#clip180)" d="M776.692 251.047 L796.553 251.047 L796.553 254.982 L781.368 254.982 L781.368 265.167 L795.072 265.167 L795.072 269.102 L781.368 269.102 L781.368 285.607 L776.692 285.607 L776.692 251.047 Z" fill="#000000" fill-rule="nonzero" fill-opacity="1" /></svg>
