<?xml version="1.0" encoding="utf-8"?>
<svg xmlns="http://www.w3.org/2000/svg" xmlns:xlink="http://www.w3.org/1999/xlink" width="600" height="400" viewBox="0 0 2400 1600">
<defs>
  <clipPath id="clip940">
    <rect x="0" y="0" width="2400" height="1600"/>
  </clipPath>
</defs>
<path clip-path="url(#clip940)" d="M0 1600 L2400 1600 L2400 0 L0 0  Z" fill="#ffffff" fill-rule="evenodd" fill-opacity="1"/>
<defs>
  <clipPath id="clip941">
    <rect x="480" y="0" width="1681" height="1600"/>
  </clipPath>
</defs>
<path clip-path="url(#clip940)" d="M401.881 1358.71 L2352.76 1358.71 L2352.76 123.472 L401.881 123.472  Z" fill="#ffffff" fill-rule="evenodd" fill-opacity="1"/>
<defs>
  <clipPath id="clip942">
    <rect x="401" y="123" width="1952" height="1236"/>
  </clipPath>
</defs>
<polyline clip-path="url(#clip942)" style="stroke:#000000; stroke-linecap:round; stroke-linejoin:round; stroke-width:2; stroke-opacity:0.1; fill:none" points="401.881,1358.71 401.881,123.472 "/>
<polyline clip-path="url(#clip942)" style="stroke:#000000; stroke-linecap:round; stroke-linejoin:round; stroke-width:2; stroke-opacity:0.1; fill:none" points="1052.17,1358.71 1052.17,123.472 "/>
<polyline clip-path="url(#clip942)" style="stroke:#000000; stroke-linecap:round; stroke-linejoin:round; stroke-width:2; stroke-opacity:0.1; fill:none" points="1702.46,1358.71 1702.46,123.472 "/>
<polyline clip-path="url(#clip942)" style="stroke:#000000; stroke-linecap:round; stroke-linejoin:round; stroke-width:2; stroke-opacity:0.1; fill:none" points="2352.76,1358.71 2352.76,123.472 "/>
<polyline clip-path="url(#clip940)" style="stroke:#000000; stroke-linecap:round; stroke-linejoin:round; stroke-width:4; stroke-opacity:1; fill:none" points="401.881,1358.71 2352.76,1358.71 "/>
<polyline clip-path="url(#clip940)" style="stroke:#000000; stroke-linecap:round; stroke-linejoin:round; stroke-width:4; stroke-opacity:1; fill:none" points="401.881,1358.71 401.881,1339.81 "/>
<polyline clip-path="url(#clip940)" style="stroke:#000000; stroke-linecap:round; stroke-linejoin:round; stroke-width:4; stroke-opacity:1; fill:none" points="1052.17,1358.71 1052.17,1339.81 "/>
<polyline clip-path="url(#clip940)" style="stroke:#000000; stroke-linecap:round; stroke-linejoin:round; stroke-width:4; stroke-opacity:1; fill:none" points="1702.46,1358.71 1702.46,1339.81 "/>
<polyline clip-path="url(#clip940)" style="stroke:#000000; stroke-linecap:round; stroke-linejoin:round; stroke-width:4; stroke-opacity:1; fill:none" points="2352.76,1358.71 2352.76,1339.81 "/>
<g clip-path="url(#clip940)">
<text style="fill:#000000; fill-opacity:1; font-family:Courier,Courier New,Lucida Sans Typewriter,Lucida Typewriter,monospace; font-size:118px; text-anchor:middle;" transform="rotate(0, 401.881, 1464)" x="401.881" y="1464">0</text>
</g>
<g clip-path="url(#clip940)">
<text style="fill:#000000; fill-opacity:1; font-family:Courier,Courier New,Lucida Sans Typewriter,Lucida Typewriter,monospace; font-size:118px; text-anchor:middle;" transform="rotate(0, 1052.17, 1464)" x="1052.17" y="1464">1</text>
</g>
<g clip-path="url(#clip940)">
<text style="fill:#000000; fill-opacity:1; font-family:Courier,Courier New,Lucida Sans Typewriter,Lucida Typewriter,monospace; font-size:118px; text-anchor:middle;" transform="rotate(0, 1702.46, 1464)" x="1702.46" y="1464">2</text>
</g>
<g clip-path="url(#clip940)">
<text style="fill:#000000; fill-opacity:1; font-family:Courier,Courier New,Lucida Sans Typewriter,Lucida Typewriter,monospace; font-size:118px; text-anchor:middle;" transform="rotate(0, 2352.76, 1464)" x="2352.76" y="1464">3</text>
</g>
<path clip-path="url(#clip940)" d="M1404.51 1532.87 L1383.41 1561.26 L1405.6 1591.21 L1394.3 1591.21 L1377.32 1568.29 L1360.34 1591.21 L1349.04 1591.21 L1371.69 1560.69 L1350.96 1532.87 L1362.27 1532.87 L1377.74 1553.66 L1393.2 1532.87 L1404.51 1532.87 Z" fill="#000000" fill-rule="nonzero" fill-opacity="1" /><polyline clip-path="url(#clip942)" style="stroke:#000000; stroke-linecap:round; stroke-linejoin:round; stroke-width:2; stroke-opacity:0.1; fill:none" points="401.881,1358.71 2352.76,1358.71 "/>
<polyline clip-path="url(#clip942)" style="stroke:#000000; stroke-linecap:round; stroke-linejoin:round; stroke-width:2; stroke-opacity:0.1; fill:none" points="401.881,954.331 2352.76,954.331 "/>
<polyline clip-path="url(#clip942)" style="stroke:#000000; stroke-linecap:round; stroke-linejoin:round; stroke-width:2; stroke-opacity:0.1; fill:none" points="401.881,549.955 2352.76,549.955 "/>
<polyline clip-path="url(#clip942)" style="stroke:#000000; stroke-linecap:round; stroke-linejoin:round; stroke-width:2; stroke-opacity:0.1; fill:none" points="401.881,145.578 2352.76,145.578 "/>
<polyline clip-path="url(#clip940)" style="stroke:#000000; stroke-linecap:round; stroke-linejoin:round; stroke-width:4; stroke-opacity:1; fill:none" points="401.881,1358.71 401.881,123.472 "/>
<polyline clip-path="url(#clip940)" style="stroke:#000000; stroke-linecap:round; stroke-linejoin:round; stroke-width:4; stroke-opacity:1; fill:none" points="401.881,1358.71 420.779,1358.71 "/>
<polyline clip-path="url(#clip940)" style="stroke:#000000; stroke-linecap:round; stroke-linejoin:round; stroke-width:4; stroke-opacity:1; fill:none" points="401.881,954.331 420.779,954.331 "/>
<polyline clip-path="url(#clip940)" style="stroke:#000000; stroke-linecap:round; stroke-linejoin:round; stroke-width:4; stroke-opacity:1; fill:none" points="401.881,549.955 420.779,549.955 "/>
<polyline clip-path="url(#clip940)" style="stroke:#000000; stroke-linecap:round; stroke-linejoin:round; stroke-width:4; stroke-opacity:1; fill:none" points="401.881,145.578 420.779,145.578 "/>
<g clip-path="url(#clip940)">
<text style="fill:#000000; fill-opacity:1; font-family:Courier,Courier New,Lucida Sans Typewriter,Lucida Typewriter,monospace; font-size:118px; text-anchor:middle;" transform="rotate(0, 255.191, 1393.21)" x="255.191" y="1393.21">0.0</text>
</g>
<g clip-path="url(#clip940)">
<text style="fill:#000000; fill-opacity:1; font-family:Courier,Courier New,Lucida Sans Typewriter,Lucida Typewriter,monospace; font-size:118px; text-anchor:middle;" transform="rotate(0, 255.191, 988.831)" x="255.191" y="988.831">0.5</text>
</g>
<g clip-path="url(#clip940)">
<text style="fill:#000000; fill-opacity:1; font-family:Courier,Courier New,Lucida Sans Typewriter,Lucida Typewriter,monospace; font-size:118px; text-anchor:middle;" transform="rotate(0, 255.191, 584.455)" x="255.191" y="584.455">1.0</text>
</g>
<g clip-path="url(#clip940)">
<text style="fill:#000000; fill-opacity:1; font-family:Courier,Courier New,Lucida Sans Typewriter,Lucida Typewriter,monospace; font-size:118px; text-anchor:middle;" transform="rotate(0, 255.191, 180.078)" x="255.191" y="180.078">1.5</text>
</g>
<path clip-path="url(#clip940)" d="M16.0579 926.506 L76.5264 926.506 L76.5264 913.797 Q76.5264 897.704 69.2347 890.256 Q61.9431 882.756 46.214 882.756 Q30.5891 882.756 23.3496 890.256 Q16.0579 897.704 16.0579 913.797 L16.0579 926.506 M7.41216 937.026 L7.41216 915.412 Q7.41216 892.808 16.8392 882.235 Q26.2141 871.662 46.214 871.662 Q66.3181 871.662 75.7451 882.287 Q85.1722 892.912 85.1722 915.412 L85.1722 937.026 L7.41216 937.026 Z" fill="#000000" fill-rule="nonzero" fill-opacity="1" /><path clip-path="url(#clip940)" d="M53.6098 805.413 L58.2973 805.413 L58.2973 849.475 Q68.1931 848.85 73.4014 843.537 Q78.5576 838.173 78.5576 828.642 Q78.5576 823.121 77.2035 817.965 Q75.8493 812.756 73.141 807.652 L82.2034 807.652 Q84.3909 812.808 85.5367 818.225 Q86.6826 823.642 86.6826 829.214 Q86.6826 843.173 78.5576 851.35 Q70.4327 859.475 56.5786 859.475 Q42.2557 859.475 33.8703 851.766 Q25.4329 844.006 25.4329 830.881 Q25.4329 819.11 33.037 812.288 Q40.5891 805.413 53.6098 805.413 M50.7973 814.996 Q42.9328 815.1 38.2453 819.423 Q33.5579 823.694 33.5579 830.777 Q33.5579 838.798 38.0891 843.642 Q42.6203 848.433 50.8494 849.162 L50.7973 814.996 Z" fill="#000000" fill-rule="nonzero" fill-opacity="1" /><path clip-path="url(#clip940)" d="M49.964 741.194 L85.1722 741.194 L85.1722 750.777 L50.2765 750.777 Q41.9953 750.777 37.8807 754.007 Q33.7662 757.236 33.7662 763.694 Q33.7662 771.454 38.7141 775.934 Q43.662 780.413 52.2036 780.413 L85.1722 780.413 L85.1722 790.048 L26.8391 790.048 L26.8391 780.413 L35.9016 780.413 Q30.6412 776.975 28.037 772.34 Q25.4329 767.652 25.4329 761.559 Q25.4329 751.507 31.6829 746.35 Q37.8807 741.194 49.964 741.194 Z" fill="#000000" fill-rule="nonzero" fill-opacity="1" /><path clip-path="url(#clip940)" d="M28.5579 684.892 L37.6203 684.892 Q35.537 688.955 34.4953 693.33 Q33.4537 697.705 33.4537 702.392 Q33.4537 709.528 35.6412 713.121 Q37.8287 716.663 42.2036 716.663 Q45.537 716.663 47.464 714.111 Q49.339 711.559 51.0578 703.851 L51.7869 700.569 Q53.9744 690.361 57.9848 686.09 Q61.9431 681.767 69.0785 681.767 Q77.2035 681.767 81.943 688.226 Q86.6826 694.632 86.6826 705.882 Q86.6826 710.569 85.7451 715.673 Q84.8597 720.725 83.0368 726.35 L73.141 726.35 Q75.9014 721.038 77.3076 715.882 Q78.6618 710.726 78.6618 705.673 Q78.6618 698.903 76.3701 695.257 Q74.0264 691.611 69.8077 691.611 Q65.9014 691.611 63.8181 694.267 Q61.7348 696.871 59.8077 705.778 L59.0265 709.111 Q57.1515 718.017 53.2973 721.975 Q49.3911 725.934 42.6203 725.934 Q34.3912 725.934 29.912 720.1 Q25.4329 714.267 25.4329 703.538 Q25.4329 698.226 26.2141 693.538 Q26.9954 688.851 28.5579 684.892 Z" fill="#000000" fill-rule="nonzero" fill-opacity="1" /><path clip-path="url(#clip940)" d="M26.8391 666.507 L26.8391 656.924 L85.1722 656.924 L85.1722 666.507 L26.8391 666.507 M4.13093 666.507 L4.13093 656.924 L16.2663 656.924 L16.2663 666.507 L4.13093 666.507 Z" fill="#000000" fill-rule="nonzero" fill-opacity="1" /><path clip-path="url(#clip940)" d="M10.2767 627.393 L26.8391 627.393 L26.8391 607.653 L34.287 607.653 L34.287 627.393 L65.9535 627.393 Q73.0889 627.393 75.1201 625.466 Q77.1514 623.486 77.1514 617.497 L77.1514 607.653 L85.1722 607.653 L85.1722 617.497 Q85.1722 628.591 81.0576 632.809 Q76.891 637.028 65.9535 637.028 L34.287 637.028 L34.287 644.059 L26.8391 644.059 L26.8391 637.028 L10.2767 637.028 L10.2767 627.393 Z" fill="#000000" fill-rule="nonzero" fill-opacity="1" /><path clip-path="url(#clip940)" d="M90.5888 570.778 Q101.005 574.841 104.182 578.695 Q107.36 582.549 107.36 589.007 L107.36 596.664 L99.3387 596.664 L99.3387 591.039 Q99.3387 587.08 97.4638 584.893 Q95.5888 582.705 88.6096 580.049 L84.2347 578.33 L26.8391 601.924 L26.8391 591.768 L72.4639 573.539 L26.8391 555.31 L26.8391 545.154 L90.5888 570.778 Z" fill="#000000" fill-rule="nonzero" fill-opacity="1" /><path clip-path="url(#clip940)" d="M1068.11 12.096 L1106.35 12.096 L1106.35 18.9825 L1076.3 18.9825 L1076.3 36.8875 L1105.1 36.8875 L1105.1 43.7741 L1076.3 43.7741 L1076.3 65.6895 L1107.08 65.6895 L1107.08 72.576 L1068.11 72.576 L1068.11 12.096 Z" fill="#000000" fill-rule="nonzero" fill-opacity="1" /><path clip-path="url(#clip940)" d="M1115.14 12.096 L1123.41 12.096 L1136.13 63.2184 L1148.81 12.096 L1158 12.096 L1170.72 63.2184 L1183.4 12.096 L1191.71 12.096 L1176.52 72.576 L1166.23 72.576 L1153.47 20.0763 L1140.58 72.576 L1130.29 72.576 L1115.14 12.096 Z" fill="#000000" fill-rule="nonzero" fill-opacity="1" /><path clip-path="url(#clip940)" d="M1258.46 34.0924 L1258.46 9.54393 L1265.92 9.54393 L1265.92 72.576 L1258.46 72.576 L1258.46 65.7705 Q1256.12 69.8214 1252.51 71.8063 Q1248.95 73.7508 1243.92 73.7508 Q1235.7 73.7508 1230.51 67.1883 Q1225.37 60.6258 1225.37 49.9314 Q1225.37 39.2371 1230.51 32.6746 Q1235.7 26.1121 1243.92 26.1121 Q1248.95 26.1121 1252.51 28.0971 Q1256.12 30.0415 1258.46 34.0924 M1233.07 49.9314 Q1233.07 58.1548 1236.43 62.8538 Q1239.83 67.5124 1245.75 67.5124 Q1251.66 67.5124 1255.06 62.8538 Q1258.46 58.1548 1258.46 49.9314 Q1258.46 41.7081 1255.06 37.0496 Q1251.66 32.3505 1245.75 32.3505 Q1239.83 32.3505 1236.43 37.0496 Q1233.07 41.7081 1233.07 49.9314 Z" fill="#000000" fill-rule="nonzero" fill-opacity="1" /><path clip-path="url(#clip940)" d="M1281.27 27.2059 L1288.73 27.2059 L1288.73 72.576 L1281.27 72.576 L1281.27 27.2059 M1281.27 9.54393 L1288.73 9.54393 L1288.73 18.9825 L1281.27 18.9825 L1281.27 9.54393 Z" fill="#000000" fill-rule="nonzero" fill-opacity="1" /><path clip-path="url(#clip940)" d="M1333.24 28.5427 L1333.24 35.5912 Q1330.08 33.9709 1326.68 33.1607 Q1323.28 32.3505 1319.63 32.3505 Q1314.08 32.3505 1311.29 34.0519 Q1308.53 35.7533 1308.53 39.156 Q1308.53 41.7486 1310.52 43.2475 Q1312.5 44.7058 1318.5 46.0426 L1321.05 46.6097 Q1328.99 48.3111 1332.31 51.4303 Q1335.68 54.509 1335.68 60.0587 Q1335.68 66.3781 1330.65 70.0644 Q1325.67 73.7508 1316.92 73.7508 Q1313.27 73.7508 1309.3 73.0216 Q1305.37 72.3329 1301 70.9151 L1301 63.2184 Q1305.13 65.3654 1309.14 66.4591 Q1313.15 67.5124 1317.08 67.5124 Q1322.35 67.5124 1325.18 65.73 Q1328.02 63.9071 1328.02 60.6258 Q1328.02 57.5877 1325.95 55.9673 Q1323.93 54.3469 1317 52.8481 L1314.41 52.2405 Q1307.48 50.7821 1304.4 47.7845 Q1301.32 44.7463 1301.32 39.4801 Q1301.32 33.0797 1305.86 29.5959 Q1310.4 26.1121 1318.74 26.1121 Q1322.87 26.1121 1326.52 26.7198 Q1330.17 27.3274 1333.24 28.5427 Z" fill="#000000" fill-rule="nonzero" fill-opacity="1" /><path clip-path="url(#clip940)" d="M1354.92 14.324 L1354.92 27.2059 L1370.27 27.2059 L1370.27 32.9987 L1354.92 32.9987 L1354.92 57.6282 Q1354.92 63.1779 1356.42 64.7578 Q1357.96 66.3376 1362.61 66.3376 L1370.27 66.3376 L1370.27 72.576 L1362.61 72.576 Q1353.99 72.576 1350.7 69.3758 Q1347.42 66.1351 1347.42 57.6282 L1347.42 32.9987 L1341.95 32.9987 L1341.95 27.2059 L1347.42 27.2059 L1347.42 14.324 L1354.92 14.324 Z" fill="#000000" fill-rule="nonzero" fill-opacity="1" /><path clip-path="url(#clip940)" d="M1406.36 34.1734 Q1405.11 33.4443 1403.61 33.1202 Q1402.15 32.7556 1400.37 32.7556 Q1394.05 32.7556 1390.65 36.8875 Q1387.28 40.9789 1387.28 48.6757 L1387.28 72.576 L1379.79 72.576 L1379.79 27.2059 L1387.28 27.2059 L1387.28 34.2544 Q1389.63 30.1225 1393.4 28.1376 Q1397.17 26.1121 1402.56 26.1121 Q1403.33 26.1121 1404.26 26.2337 Q1405.19 26.3147 1406.32 26.5172 L1406.36 34.1734 Z" fill="#000000" fill-rule="nonzero" fill-opacity="1" /><path clip-path="url(#clip940)" d="M1414.18 27.2059 L1421.64 27.2059 L1421.64 72.576 L1414.18 72.576 L1414.18 27.2059 M1414.18 9.54393 L1421.64 9.54393 L1421.64 18.9825 L1414.18 18.9825 L1414.18 9.54393 Z" fill="#000000" fill-rule="nonzero" fill-opacity="1" /><path clip-path="url(#clip940)" d="M1469.8 49.9314 Q1469.8 41.7081 1466.4 37.0496 Q1463.04 32.3505 1457.12 32.3505 Q1451.21 32.3505 1447.8 37.0496 Q1444.44 41.7081 1444.44 49.9314 Q1444.44 58.1548 1447.8 62.8538 Q1451.21 67.5124 1457.12 67.5124 Q1463.04 67.5124 1466.4 62.8538 Q1469.8 58.1548 1469.8 49.9314 M1444.44 34.0924 Q1446.79 30.0415 1450.36 28.0971 Q1453.96 26.1121 1458.94 26.1121 Q1467.21 26.1121 1472.35 32.6746 Q1477.54 39.2371 1477.54 49.9314 Q1477.54 60.6258 1472.35 67.1883 Q1467.21 73.7508 1458.94 73.7508 Q1453.96 73.7508 1450.36 71.8063 Q1446.79 69.8214 1444.44 65.7705 L1444.44 72.576 L1436.95 72.576 L1436.95 9.54393 L1444.44 9.54393 L1444.44 34.0924 Z" fill="#000000" fill-rule="nonzero" fill-opacity="1" /><path clip-path="url(#clip940)" d="M1489.12 54.671 L1489.12 27.2059 L1496.58 27.2059 L1496.58 54.3874 Q1496.58 60.8284 1499.09 64.0691 Q1501.6 67.2693 1506.62 67.2693 Q1512.66 67.2693 1516.14 63.421 Q1519.67 59.5726 1519.67 52.9291 L1519.67 27.2059 L1527.12 27.2059 L1527.12 72.576 L1519.67 72.576 L1519.67 65.6084 Q1516.95 69.7404 1513.35 71.7658 Q1509.78 73.7508 1505.04 73.7508 Q1497.23 73.7508 1493.17 68.8897 Q1489.12 64.0286 1489.12 54.671 M1507.88 26.1121 L1507.88 26.1121 Z" fill="#000000" fill-rule="nonzero" fill-opacity="1" /><path clip-path="url(#clip940)" d="M1549.85 14.324 L1549.85 27.2059 L1565.2 27.2059 L1565.2 32.9987 L1549.85 32.9987 L1549.85 57.6282 Q1549.85 63.1779 1551.35 64.7578 Q1552.88 66.3376 1557.54 66.3376 L1565.2 66.3376 L1565.2 72.576 L1557.54 72.576 Q1548.91 72.576 1545.63 69.3758 Q1542.35 66.1351 1542.35 57.6282 L1542.35 32.9987 L1536.88 32.9987 L1536.88 27.2059 L1542.35 27.2059 L1542.35 14.324 L1549.85 14.324 Z" fill="#000000" fill-rule="nonzero" fill-opacity="1" /><path clip-path="url(#clip940)" d="M1575 27.2059 L1582.46 27.2059 L1582.46 72.576 L1575 72.576 L1575 27.2059 M1575 9.54393 L1582.46 9.54393 L1582.46 18.9825 L1575 18.9825 L1575 9.54393 Z" fill="#000000" fill-rule="nonzero" fill-opacity="1" /><path clip-path="url(#clip940)" d="M1615.63 32.4315 Q1609.64 32.4315 1606.15 37.1306 Q1602.67 41.7891 1602.67 49.9314 Q1602.67 58.0738 1606.11 62.7728 Q1609.6 67.4314 1615.63 67.4314 Q1621.59 67.4314 1625.07 62.7323 Q1628.56 58.0333 1628.56 49.9314 Q1628.56 41.8701 1625.07 37.1711 Q1621.59 32.4315 1615.63 32.4315 M1615.63 26.1121 Q1625.36 26.1121 1630.91 32.4315 Q1636.45 38.7509 1636.45 49.9314 Q1636.45 61.0714 1630.91 67.4314 Q1625.36 73.7508 1615.63 73.7508 Q1605.87 73.7508 1600.32 67.4314 Q1594.81 61.0714 1594.81 49.9314 Q1594.81 38.7509 1600.32 32.4315 Q1605.87 26.1121 1615.63 26.1121 Z" fill="#000000" fill-rule="nonzero" fill-opacity="1" /><path clip-path="url(#clip940)" d="M1686.52 45.1919 L1686.52 72.576 L1679.07 72.576 L1679.07 45.4349 Q1679.07 38.994 1676.56 35.7938 Q1674.05 32.5936 1669.02 32.5936 Q1662.99 32.5936 1659.5 36.4419 Q1656.02 40.2903 1656.02 46.9338 L1656.02 72.576 L1648.53 72.576 L1648.53 27.2059 L1656.02 27.2059 L1656.02 34.2544 Q1658.69 30.163 1662.3 28.1376 Q1665.95 26.1121 1670.68 26.1121 Q1678.5 26.1121 1682.51 30.9732 Q1686.52 35.7938 1686.52 45.1919 Z" fill="#000000" fill-rule="nonzero" fill-opacity="1" /><path clip-path="url(#clip942)" d="M401.881 1358.71 L401.881 1358.71 L469.152 1358.71 L469.152 1358.71 L401.881 1358.71 L401.881 1358.71  Z" fill="#808080" fill-rule="evenodd" fill-opacity="1"/>
<polyline clip-path="url(#clip942)" style="stroke:#000000; stroke-linecap:round; stroke-linejoin:round; stroke-width:4; stroke-opacity:1; fill:none" points="401.881,1358.71 401.881,1358.71 469.152,1358.71 401.881,1358.71 "/>
<path clip-path="url(#clip942)" d="M469.152 1358.71 L469.152 1358.71 L536.424 1358.71 L536.424 1358.71 L469.152 1358.71 L469.152 1358.71  Z" fill="#808080" fill-rule="evenodd" fill-opacity="1"/>
<polyline clip-path="url(#clip942)" style="stroke:#000000; stroke-linecap:round; stroke-linejoin:round; stroke-width:4; stroke-opacity:1; fill:none" points="469.152,1358.71 469.152,1358.71 536.424,1358.71 469.152,1358.71 "/>
<path clip-path="url(#clip942)" d="M536.424 1343.07 L536.424 1358.71 L603.696 1358.71 L603.696 1343.07 L536.424 1343.07 L536.424 1343.07  Z" fill="#808080" fill-rule="evenodd" fill-opacity="1"/>
<polyline clip-path="url(#clip942)" style="stroke:#000000; stroke-linecap:round; stroke-linejoin:round; stroke-width:4; stroke-opacity:1; fill:none" points="536.424,1343.07 536.424,1358.71 603.696,1358.71 603.696,1343.07 536.424,1343.07 "/>
<path clip-path="url(#clip942)" d="M603.696 1343.07 L603.696 1358.71 L670.967 1358.71 L670.967 1343.07 L603.696 1343.07 L603.696 1343.07  Z" fill="#808080" fill-rule="evenodd" fill-opacity="1"/>
<polyline clip-path="url(#clip942)" style="stroke:#000000; stroke-linecap:round; stroke-linejoin:round; stroke-width:4; stroke-opacity:1; fill:none" points="603.696,1343.07 603.696,1358.71 670.967,1358.71 670.967,1343.07 603.696,1343.07 "/>
<path clip-path="url(#clip942)" d="M670.967 1303.98 L670.967 1358.71 L738.239 1358.71 L738.239 1303.98 L670.967 1303.98 L670.967 1303.98  Z" fill="#808080" fill-rule="evenodd" fill-opacity="1"/>
<polyline clip-path="url(#clip942)" style="stroke:#000000; stroke-linecap:round; stroke-linejoin:round; stroke-width:4; stroke-opacity:1; fill:none" points="670.967,1303.98 670.967,1358.71 738.239,1358.71 738.239,1303.98 670.967,1303.98 "/>
<path clip-path="url(#clip942)" d="M738.239 1085.08 L738.239 1358.71 L805.51 1358.71 L805.51 1085.08 L738.239 1085.08 L738.239 1085.08  Z" fill="#808080" fill-rule="evenodd" fill-opacity="1"/>
<polyline clip-path="url(#clip942)" style="stroke:#000000; stroke-linecap:round; stroke-linejoin:round; stroke-width:4; stroke-opacity:1; fill:none" points="738.239,1085.08 738.239,1358.71 805.51,1358.71 805.51,1085.08 738.239,1085.08 "/>
<path clip-path="url(#clip942)" d="M805.51 889.631 L805.51 1358.71 L872.782 1358.71 L872.782 889.631 L805.51 889.631 L805.51 889.631  Z" fill="#808080" fill-rule="evenodd" fill-opacity="1"/>
<polyline clip-path="url(#clip942)" style="stroke:#000000; stroke-linecap:round; stroke-linejoin:round; stroke-width:4; stroke-opacity:1; fill:none" points="805.51,889.631 805.51,1358.71 872.782,1358.71 872.782,889.631 805.51,889.631 "/>
<path clip-path="url(#clip942)" d="M872.782 756.726 L872.782 1358.71 L940.053 1358.71 L940.053 756.726 L872.782 756.726 L872.782 756.726  Z" fill="#808080" fill-rule="evenodd" fill-opacity="1"/>
<polyline clip-path="url(#clip942)" style="stroke:#000000; stroke-linecap:round; stroke-linejoin:round; stroke-width:4; stroke-opacity:1; fill:none" points="872.782,756.726 872.782,1358.71 940.053,1358.71 940.053,756.726 872.782,756.726 "/>
<path clip-path="url(#clip942)" d="M940.053 420.554 L940.053 1358.71 L1007.32 1358.71 L1007.32 420.554 L940.053 420.554 L940.053 420.554  Z" fill="#808080" fill-rule="evenodd" fill-opacity="1"/>
<polyline clip-path="url(#clip942)" style="stroke:#000000; stroke-linecap:round; stroke-linejoin:round; stroke-width:4; stroke-opacity:1; fill:none" points="940.053,420.554 940.053,1358.71 1007.32,1358.71 1007.32,420.554 940.053,420.554 "/>
<path clip-path="url(#clip942)" d="M1007.32 123.472 L1007.32 1358.71 L1074.6 1358.71 L1074.6 123.472 L1007.32 123.472 L1007.32 123.472  Z" fill="#808080" fill-rule="evenodd" fill-opacity="1"/>
<polyline clip-path="url(#clip942)" style="stroke:#000000; stroke-linecap:round; stroke-linejoin:round; stroke-width:4; stroke-opacity:1; fill:none" points="1007.32,123.472 1007.32,1358.71 1074.6,1358.71 1074.6,123.472 1007.32,123.472 "/>
<path clip-path="url(#clip942)" d="M1074.6 311.103 L1074.6 1358.71 L1141.87 1358.71 L1141.87 311.103 L1074.6 311.103 L1074.6 311.103  Z" fill="#808080" fill-rule="evenodd" fill-opacity="1"/>
<polyline clip-path="url(#clip942)" style="stroke:#000000; stroke-linecap:round; stroke-linejoin:round; stroke-width:4; stroke-opacity:1; fill:none" points="1074.6,311.103 1074.6,1358.71 1141.87,1358.71 1141.87,311.103 1074.6,311.103 "/>
<path clip-path="url(#clip942)" d="M1141.87 186.016 L1141.87 1358.71 L1209.14 1358.71 L1209.14 186.016 L1141.87 186.016 L1141.87 186.016  Z" fill="#808080" fill-rule="evenodd" fill-opacity="1"/>
<polyline clip-path="url(#clip942)" style="stroke:#000000; stroke-linecap:round; stroke-linejoin:round; stroke-width:4; stroke-opacity:1; fill:none" points="1141.87,186.016 1141.87,1358.71 1209.14,1358.71 1209.14,186.016 1141.87,186.016 "/>
<path clip-path="url(#clip942)" d="M1209.14 616.003 L1209.14 1358.71 L1276.41 1358.71 L1276.41 616.003 L1209.14 616.003 L1209.14 616.003  Z" fill="#808080" fill-rule="evenodd" fill-opacity="1"/>
<polyline clip-path="url(#clip942)" style="stroke:#000000; stroke-linecap:round; stroke-linejoin:round; stroke-width:4; stroke-opacity:1; fill:none" points="1209.14,616.003 1209.14,1358.71 1276.41,1358.71 1276.41,616.003 1209.14,616.003 "/>
<path clip-path="url(#clip942)" d="M1276.41 858.359 L1276.41 1358.71 L1343.68 1358.71 L1343.68 858.359 L1276.41 858.359 L1276.41 858.359  Z" fill="#808080" fill-rule="evenodd" fill-opacity="1"/>
<polyline clip-path="url(#clip942)" style="stroke:#000000; stroke-linecap:round; stroke-linejoin:round; stroke-width:4; stroke-opacity:1; fill:none" points="1276.41,858.359 1276.41,1358.71 1343.68,1358.71 1343.68,858.359 1276.41,858.359 "/>
<path clip-path="url(#clip942)" d="M1343.68 936.539 L1343.68 1358.71 L1410.95 1358.71 L1410.95 936.539 L1343.68 936.539 L1343.68 936.539  Z" fill="#808080" fill-rule="evenodd" fill-opacity="1"/>
<polyline clip-path="url(#clip942)" style="stroke:#000000; stroke-linecap:round; stroke-linejoin:round; stroke-width:4; stroke-opacity:1; fill:none" points="1343.68,936.539 1343.68,1358.71 1410.95,1358.71 1410.95,936.539 1343.68,936.539 "/>
<path clip-path="url(#clip942)" d="M1410.95 1139.81 L1410.95 1358.71 L1478.23 1358.71 L1478.23 1139.81 L1410.95 1139.81 L1410.95 1139.81  Z" fill="#808080" fill-rule="evenodd" fill-opacity="1"/>
<polyline clip-path="url(#clip942)" style="stroke:#000000; stroke-linecap:round; stroke-linejoin:round; stroke-width:4; stroke-opacity:1; fill:none" points="1410.95,1139.81 1410.95,1358.71 1478.23,1358.71 1478.23,1139.81 1410.95,1139.81 "/>
<path clip-path="url(#clip942)" d="M1478.23 1288.35 L1478.23 1358.71 L1545.5 1358.71 L1545.5 1288.35 L1478.23 1288.35 L1478.23 1288.35  Z" fill="#808080" fill-rule="evenodd" fill-opacity="1"/>
<polyline clip-path="url(#clip942)" style="stroke:#000000; stroke-linecap:round; stroke-linejoin:round; stroke-width:4; stroke-opacity:1; fill:none" points="1478.23,1288.35 1478.23,1358.71 1545.5,1358.71 1545.5,1288.35 1478.23,1288.35 "/>
<path clip-path="url(#clip942)" d="M1545.5 1343.07 L1545.5 1358.71 L1612.77 1358.71 L1612.77 1343.07 L1545.5 1343.07 L1545.5 1343.07  Z" fill="#808080" fill-rule="evenodd" fill-opacity="1"/>
<polyline clip-path="url(#clip942)" style="stroke:#000000; stroke-linecap:round; stroke-linejoin:round; stroke-width:4; stroke-opacity:1; fill:none" points="1545.5,1343.07 1545.5,1358.71 1612.77,1358.71 1612.77,1343.07 1545.5,1343.07 "/>
<path clip-path="url(#clip942)" d="M1612.77 1350.89 L1612.77 1358.71 L1680.04 1358.71 L1680.04 1350.89 L1612.77 1350.89 L1612.77 1350.89  Z" fill="#808080" fill-rule="evenodd" fill-opacity="1"/>
<polyline clip-path="url(#clip942)" style="stroke:#000000; stroke-linecap:round; stroke-linejoin:round; stroke-width:4; stroke-opacity:1; fill:none" points="1612.77,1350.89 1612.77,1358.71 1680.04,1358.71 1680.04,1350.89 1612.77,1350.89 "/>
<path clip-path="url(#clip942)" d="M1680.04 1350.89 L1680.04 1358.71 L1747.31 1358.71 L1747.31 1350.89 L1680.04 1350.89 L1680.04 1350.89  Z" fill="#808080" fill-rule="evenodd" fill-opacity="1"/>
<polyline clip-path="url(#clip942)" style="stroke:#000000; stroke-linecap:round; stroke-linejoin:round; stroke-width:4; stroke-opacity:1; fill:none" points="1680.04,1350.89 1680.04,1358.71 1747.31,1358.71 1747.31,1350.89 1680.04,1350.89 "/>
<path clip-path="url(#clip942)" d="M1747.31 1350.89 L1747.31 1358.71 L1814.58 1358.71 L1814.58 1350.89 L1747.31 1350.89 L1747.31 1350.89  Z" fill="#808080" fill-rule="evenodd" fill-opacity="1"/>
<polyline clip-path="url(#clip942)" style="stroke:#000000; stroke-linecap:round; stroke-linejoin:round; stroke-width:4; stroke-opacity:1; fill:none" points="1747.31,1350.89 1747.31,1358.71 1814.58,1358.71 1814.58,1350.89 1747.31,1350.89 "/>
<path clip-path="url(#clip942)" d="M1814.58 1358.71 L1814.58 1358.71 L1881.86 1358.71 L1881.86 1358.71 L1814.58 1358.71 L1814.58 1358.71  Z" fill="#808080" fill-rule="evenodd" fill-opacity="1"/>
<polyline clip-path="url(#clip942)" style="stroke:#000000; stroke-linecap:round; stroke-linejoin:round; stroke-width:4; stroke-opacity:1; fill:none" points="1814.58,1358.71 1814.58,1358.71 1881.86,1358.71 1814.58,1358.71 "/>
<path clip-path="url(#clip942)" d="M1881.86 1358.71 L1881.86 1358.71 L1949.13 1358.71 L1949.13 1358.71 L1881.86 1358.71 L1881.86 1358.71  Z" fill="#808080" fill-rule="evenodd" fill-opacity="1"/>
<polyline clip-path="url(#clip942)" style="stroke:#000000; stroke-linecap:round; stroke-linejoin:round; stroke-width:4; stroke-opacity:1; fill:none" points="1881.86,1358.71 1881.86,1358.71 1949.13,1358.71 1881.86,1358.71 "/>
<path clip-path="url(#clip942)" d="M1949.13 1358.71 L1949.13 1358.71 L2016.4 1358.71 L2016.4 1358.71 L1949.13 1358.71 L1949.13 1358.71  Z" fill="#808080" fill-rule="evenodd" fill-opacity="1"/>
<polyline clip-path="url(#clip942)" style="stroke:#000000; stroke-linecap:round; stroke-linejoin:round; stroke-width:4; stroke-opacity:1; fill:none" points="1949.13,1358.71 1949.13,1358.71 2016.4,1358.71 1949.13,1358.71 "/>
<path clip-path="url(#clip942)" d="M2016.4 1358.71 L2016.4 1358.71 L2083.67 1358.71 L2083.67 1358.71 L2016.4 1358.71 L2016.4 1358.71  Z" fill="#808080" fill-rule="evenodd" fill-opacity="1"/>
<polyline clip-path="url(#clip942)" style="stroke:#000000; stroke-linecap:round; stroke-linejoin:round; stroke-width:4; stroke-opacity:1; fill:none" points="2016.4,1358.71 2016.4,1358.71 2083.67,1358.71 2016.4,1358.71 "/>
<path clip-path="url(#clip942)" d="M2083.67 1358.71 L2083.67 1358.71 L2150.94 1358.71 L2150.94 1358.71 L2083.67 1358.71 L2083.67 1358.71  Z" fill="#808080" fill-rule="evenodd" fill-opacity="1"/>
<polyline clip-path="url(#clip942)" style="stroke:#000000; stroke-linecap:round; stroke-linejoin:round; stroke-width:4; stroke-opacity:1; fill:none" points="2083.67,1358.71 2083.67,1358.71 2150.94,1358.71 2083.67,1358.71 "/>
<path clip-path="url(#clip942)" d="M2150.94 1358.71 L2150.94 1358.71 L2218.21 1358.71 L2218.21 1358.71 L2150.94 1358.71 L2150.94 1358.71  Z" fill="#808080" fill-rule="evenodd" fill-opacity="1"/>
<polyline clip-path="url(#clip942)" style="stroke:#000000; stroke-linecap:round; stroke-linejoin:round; stroke-width:4; stroke-opacity:1; fill:none" points="2150.94,1358.71 2150.94,1358.71 2218.21,1358.71 2150.94,1358.71 "/>
<path clip-path="url(#clip942)" d="M2218.21 1358.71 L2218.21 1358.71 L2285.48 1358.71 L2285.48 1358.71 L2218.21 1358.71 L2218.21 1358.71  Z" fill="#808080" fill-rule="evenodd" fill-opacity="1"/>
<polyline clip-path="url(#clip942)" style="stroke:#000000; stroke-linecap:round; stroke-linejoin:round; stroke-width:4; stroke-opacity:1; fill:none" points="2218.21,1358.71 2218.21,1358.71 2285.48,1358.71 2218.21,1358.71 "/>
<path clip-path="url(#clip942)" d="M2285.48 1358.71 L2285.48 1358.71 L2352.76 1358.71 L2352.76 1358.71 L2285.48 1358.71 L2285.48 1358.71  Z" fill="#808080" fill-rule="evenodd" fill-opacity="1"/>
<polyline clip-path="url(#clip942)" style="stroke:#000000; stroke-linecap:round; stroke-linejoin:round; stroke-width:4; stroke-opacity:1; fill:none" points="2285.48,1358.71 2285.48,1358.71 2352.76,1358.71 2285.48,1358.71 "/>
<circle clip-path="url(#clip942)" style="fill:#808080; stroke:none; fill-opacity:0" cx="435.517" cy="1358.71" r="2"/>
<circle clip-path="url(#clip942)" style="fill:#808080; stroke:none; fill-opacity:0" cx="502.788" cy="1358.71" r="2"/>
<circle clip-path="url(#clip942)" style="fill:#808080; stroke:none; fill-opacity:0" cx="570.06" cy="1343.07" r="2"/>
<circle clip-path="url(#clip942)" style="fill:#808080; stroke:none; fill-opacity:0" cx="637.331" cy="1343.07" r="2"/>
<circle clip-path="url(#clip942)" style="fill:#808080; stroke:none; fill-opacity:0" cx="704.603" cy="1303.98" r="2"/>
<circle clip-path="url(#clip942)" style="fill:#808080; stroke:none; fill-opacity:0" cx="771.874" cy="1085.08" r="2"/>
<circle clip-path="url(#clip942)" style="fill:#808080; stroke:none; fill-opacity:0" cx="839.146" cy="889.631" r="2"/>
<circle clip-path="url(#clip942)" style="fill:#808080; stroke:none; fill-opacity:0" cx="906.418" cy="756.726" r="2"/>
<circle clip-path="url(#clip942)" style="fill:#808080; stroke:none; fill-opacity:0" cx="973.689" cy="420.554" r="2"/>
<circle clip-path="url(#clip942)" style="fill:#808080; stroke:none; fill-opacity:0" cx="1040.96" cy="123.472" r="2"/>
<circle clip-path="url(#clip942)" style="fill:#808080; stroke:none; fill-opacity:0" cx="1108.23" cy="311.103" r="2"/>
<circle clip-path="url(#clip942)" style="fill:#808080; stroke:none; fill-opacity:0" cx="1175.5" cy="186.016" r="2"/>
<circle clip-path="url(#clip942)" style="fill:#808080; stroke:none; fill-opacity:0" cx="1242.78" cy="616.003" r="2"/>
<circle clip-path="url(#clip942)" style="fill:#808080; stroke:none; fill-opacity:0" cx="1310.05" cy="858.359" r="2"/>
<circle clip-path="url(#clip942)" style="fill:#808080; stroke:none; fill-opacity:0" cx="1377.32" cy="936.539" r="2"/>
<circle clip-path="url(#clip942)" style="fill:#808080; stroke:none; fill-opacity:0" cx="1444.59" cy="1139.81" r="2"/>
<circle clip-path="url(#clip942)" style="fill:#808080; stroke:none; fill-opacity:0" cx="1511.86" cy="1288.35" r="2"/>
<circle clip-path="url(#clip942)" style="fill:#808080; stroke:none; fill-opacity:0" cx="1579.13" cy="1343.07" r="2"/>
<circle clip-path="url(#clip942)" style="fill:#808080; stroke:none; fill-opacity:0" cx="1646.4" cy="1350.89" r="2"/>
<circle clip-path="url(#clip942)" style="fill:#808080; stroke:none; fill-opacity:0" cx="1713.68" cy="1350.89" r="2"/>
<circle clip-path="url(#clip942)" style="fill:#808080; stroke:none; fill-opacity:0" cx="1780.95" cy="1350.89" r="2"/>
<circle clip-path="url(#clip942)" style="fill:#808080; stroke:none; fill-opacity:0" cx="1848.22" cy="1358.71" r="2"/>
<circle clip-path="url(#clip942)" style="fill:#808080; stroke:none; fill-opacity:0" cx="1915.49" cy="1358.71" r="2"/>
<circle clip-path="url(#clip942)" style="fill:#808080; stroke:none; fill-opacity:0" cx="1982.76" cy="1358.71" r="2"/>
<circle clip-path="url(#clip942)" style="fill:#808080; stroke:none; fill-opacity:0" cx="2050.03" cy="1358.71" r="2"/>
<circle clip-path="url(#clip942)" style="fill:#808080; stroke:none; fill-opacity:0" cx="2117.31" cy="1358.71" r="2"/>
<circle clip-path="url(#clip942)" style="fill:#808080; stroke:none; fill-opacity:0" cx="2184.58" cy="1358.71" r="2"/>
<circle clip-path="url(#clip942)" style="fill:#808080; stroke:none; fill-opacity:0" cx="2251.85" cy="1358.71" r="2"/>
<circle clip-path="url(#clip942)" style="fill:#808080; stroke:none; fill-opacity:0" cx="2319.12" cy="1358.71" r="2"/>
<polyline clip-path="url(#clip942)" style="stroke:#0000ff; stroke-linecap:round; stroke-linejoin:round; stroke-width:12; stroke-opacity:1; fill:none" points="401.881,1358.71 408.232,1358.71 414.582,1358.71 473.303,1358.63 532.024,1357.17 549.668,1355.82 567.312,1353.66 584.957,1350.41 602.601,1345.7 617.519,1340.29 632.437,1333.28 647.355,1324.39 662.273,1313.33 670.376,1306.31 678.479,1298.5 686.581,1289.87 694.684,1280.37 702.787,1269.95 710.889,1258.57 718.992,1246.2 727.094,1232.79 734.564,1219.49 742.034,1205.27 749.504,1190.1 756.974,1173.97 764.444,1156.88 771.914,1138.81 779.384,1119.77 786.853,1099.77 794.862,1077.26 802.87,1053.67 810.879,1029.04 818.888,1003.39 826.896,976.776 834.905,949.246 842.913,920.864 850.922,891.7 869.479,821.564 888.036,748.801 906.593,674.753 925.151,600.928 941.642,536.823 958.134,475.368 966.38,446.007 974.625,417.752 982.871,390.746 991.117,365.129 998.348,343.911 1005.58,323.947 1012.81,305.318 1020.04,288.098 1027.27,272.357 1034.5,258.158 1041.73,245.557 1048.96,234.605 1056.85,224.591 1064.73,216.631 1072.61,210.758 1080.5,206.995 1088.38,205.351 1096.26,205.827 1104.15,208.41 1112.03,213.076 1119.96,219.839 1127.89,228.63 1135.82,239.393 1143.75,252.064 1151.68,266.566 1159.61,282.816 1167.54,300.724 1175.47,320.191 1184.24,343.404 1193.01,368.248 1201.78,394.568 1210.55,422.206 1219.31,451 1228.08,480.786 1236.85,511.4 1245.62,542.679 1278.99,665.029 1312.36,786.621 1321.03,817.244 1329.71,847.263 1338.38,876.591 1347.06,905.151 1355.73,932.875 1364.4,959.706 1373.08,985.595 1381.75,1010.5 1389.06,1030.68 1396.36,1050.13 1403.66,1068.84 1410.96,1086.8 1425.56,1120.45 1440.17,1151.13 1449.08,1168.4 1458,1184.61 1466.91,1199.78 1475.83,1213.93 1484.74,1227.1 1493.66,1239.32 1502.57,1250.65 1511.49,1261.1 1527.82,1278.15 1544.15,1292.7 1560.49,1305.02 1576.82,1315.35 1591.9,1323.36 1606.99,1330.06 1622.07,1335.64 1637.16,1340.26 1652.44,1344.09 1667.72,1347.2 1683,1349.71 1698.28,1351.72 1766.78,1356.65 1828.85,1358.11 1899.92,1358.58 1965.73,1358.68 2030.6,1358.7 2093.59,1358.71 2158.16,1358.71 2228.9,1358.71 2331.67,1358.71 2352.76,1358.71 "/>
</svg>
