<?xml version="1.0" encoding="utf-8"?>
<svg xmlns="http://www.w3.org/2000/svg" xmlns:xlink="http://www.w3.org/1999/xlink" width="600" height="400" viewBox="0 0 2400 1600">
<defs>
  <clipPath id="clip360">
    <rect x="0" y="0" width="2400" height="1600"/>
  </clipPath>
</defs>
<path clip-path="url(#clip360)" d="M0 1600 L2400 1600 L2400 0 L0 0  Z" fill="#ffffff" fill-rule="evenodd" fill-opacity="1"/>
<defs>
  <clipPath id="clip361">
    <rect x="480" y="0" width="1681" height="1600"/>
  </clipPath>
</defs>
<path clip-path="url(#clip360)" d="M401.881 1358.71 L2352.76 1358.71 L2352.76 123.472 L401.881 123.472  Z" fill="#ffffff" fill-rule="evenodd" fill-opacity="1"/>
<defs>
  <clipPath id="clip362">
    <rect x="401" y="123" width="1952" height="1236"/>
  </clipPath>
</defs>
<polyline clip-path="url(#clip362)" style="stroke:#000000; stroke-linecap:round; stroke-linejoin:round; stroke-width:2; stroke-opacity:0.1; fill:none" points="545.038,1358.71 545.038,123.472 "/>
<polyline clip-path="url(#clip362)" style="stroke:#000000; stroke-linecap:round; stroke-linejoin:round; stroke-width:2; stroke-opacity:0.1; fill:none" points="688.209,1358.71 688.209,123.472 "/>
<polyline clip-path="url(#clip362)" style="stroke:#000000; stroke-linecap:round; stroke-linejoin:round; stroke-width:2; stroke-opacity:0.1; fill:none" points="831.38,1358.71 831.38,123.472 "/>
<polyline clip-path="url(#clip362)" style="stroke:#000000; stroke-linecap:round; stroke-linejoin:round; stroke-width:2; stroke-opacity:0.1; fill:none" points="974.551,1358.71 974.551,123.472 "/>
<polyline clip-path="url(#clip362)" style="stroke:#000000; stroke-linecap:round; stroke-linejoin:round; stroke-width:2; stroke-opacity:0.1; fill:none" points="1117.72,1358.71 1117.72,123.472 "/>
<polyline clip-path="url(#clip362)" style="stroke:#000000; stroke-linecap:round; stroke-linejoin:round; stroke-width:2; stroke-opacity:0.1; fill:none" points="1260.89,1358.71 1260.89,123.472 "/>
<polyline clip-path="url(#clip362)" style="stroke:#000000; stroke-linecap:round; stroke-linejoin:round; stroke-width:2; stroke-opacity:0.1; fill:none" points="1404.06,1358.71 1404.06,123.472 "/>
<polyline clip-path="url(#clip362)" style="stroke:#000000; stroke-linecap:round; stroke-linejoin:round; stroke-width:2; stroke-opacity:0.1; fill:none" points="1547.24,1358.71 1547.24,123.472 "/>
<polyline clip-path="url(#clip362)" style="stroke:#000000; stroke-linecap:round; stroke-linejoin:round; stroke-width:2; stroke-opacity:0.1; fill:none" points="1690.41,1358.71 1690.41,123.472 "/>
<polyline clip-path="url(#clip362)" style="stroke:#000000; stroke-linecap:round; stroke-linejoin:round; stroke-width:2; stroke-opacity:0.1; fill:none" points="1833.58,1358.71 1833.58,123.472 "/>
<polyline clip-path="url(#clip362)" style="stroke:#000000; stroke-linecap:round; stroke-linejoin:round; stroke-width:2; stroke-opacity:0.1; fill:none" points="1976.75,1358.71 1976.75,123.472 "/>
<polyline clip-path="url(#clip362)" style="stroke:#000000; stroke-linecap:round; stroke-linejoin:round; stroke-width:2; stroke-opacity:0.1; fill:none" points="2119.92,1358.71 2119.92,123.472 "/>
<polyline clip-path="url(#clip362)" style="stroke:#000000; stroke-linecap:round; stroke-linejoin:round; stroke-width:2; stroke-opacity:0.1; fill:none" points="2263.09,1358.71 2263.09,123.472 "/>
<polyline clip-path="url(#clip360)" style="stroke:#000000; stroke-linecap:round; stroke-linejoin:round; stroke-width:4; stroke-opacity:1; fill:none" points="401.881,1358.71 2352.76,1358.71 "/>
<polyline clip-path="url(#clip360)" style="stroke:#000000; stroke-linecap:round; stroke-linejoin:round; stroke-width:4; stroke-opacity:1; fill:none" points="545.038,1358.71 545.038,1339.81 "/>
<polyline clip-path="url(#clip360)" style="stroke:#000000; stroke-linecap:round; stroke-linejoin:round; stroke-width:4; stroke-opacity:1; fill:none" points="688.209,1358.71 688.209,1339.81 "/>
<polyline clip-path="url(#clip360)" style="stroke:#000000; stroke-linecap:round; stroke-linejoin:round; stroke-width:4; stroke-opacity:1; fill:none" points="831.38,1358.71 831.38,1339.81 "/>
<polyline clip-path="url(#clip360)" style="stroke:#000000; stroke-linecap:round; stroke-linejoin:round; stroke-width:4; stroke-opacity:1; fill:none" points="974.551,1358.71 974.551,1339.81 "/>
<polyline clip-path="url(#clip360)" style="stroke:#000000; stroke-linecap:round; stroke-linejoin:round; stroke-width:4; stroke-opacity:1; fill:none" points="1117.72,1358.71 1117.72,1339.81 "/>
<polyline clip-path="url(#clip360)" style="stroke:#000000; stroke-linecap:round; stroke-linejoin:round; stroke-width:4; stroke-opacity:1; fill:none" points="1260.89,1358.71 1260.89,1339.81 "/>
<polyline clip-path="url(#clip360)" style="stroke:#000000; stroke-linecap:round; stroke-linejoin:round; stroke-width:4; stroke-opacity:1; fill:none" points="1404.06,1358.71 1404.06,1339.81 "/>
<polyline clip-path="url(#clip360)" style="stroke:#000000; stroke-linecap:round; stroke-linejoin:round; stroke-width:4; stroke-opacity:1; fill:none" points="1547.24,1358.71 1547.24,1339.81 "/>
<polyline clip-path="url(#clip360)" style="stroke:#000000; stroke-linecap:round; stroke-linejoin:round; stroke-width:4; stroke-opacity:1; fill:none" points="1690.41,1358.71 1690.41,1339.81 "/>
<polyline clip-path="url(#clip360)" style="stroke:#000000; stroke-linecap:round; stroke-linejoin:round; stroke-width:4; stroke-opacity:1; fill:none" points="1833.58,1358.71 1833.58,1339.81 "/>
<polyline clip-path="url(#clip360)" style="stroke:#000000; stroke-linecap:round; stroke-linejoin:round; stroke-width:4; stroke-opacity:1; fill:none" points="1976.75,1358.71 1976.75,1339.81 "/>
<polyline clip-path="url(#clip360)" style="stroke:#000000; stroke-linecap:round; stroke-linejoin:round; stroke-width:4; stroke-opacity:1; fill:none" points="2119.92,1358.71 2119.92,1339.81 "/>
<polyline clip-path="url(#clip360)" style="stroke:#000000; stroke-linecap:round; stroke-linejoin:round; stroke-width:4; stroke-opacity:1; fill:none" points="2263.09,1358.71 2263.09,1339.81 "/>
<g clip-path="url(#clip360)">
<text style="fill:#000000; fill-opacity:1; font-family:Courier,Courier New,Lucida Sans Typewriter,Lucida Typewriter,monospace; font-size:118px; text-anchor:middle;" transform="rotate(0, 545.038, 1464)" x="545.038" y="1464">1</text>
</g>
<g clip-path="url(#clip360)">
<text style="fill:#000000; fill-opacity:1; font-family:Courier,Courier New,Lucida Sans Typewriter,Lucida Typewriter,monospace; font-size:118px; text-anchor:middle;" transform="rotate(0, 688.209, 1464)" x="688.209" y="1464">2</text>
</g>
<g clip-path="url(#clip360)">
<text style="fill:#000000; fill-opacity:1; font-family:Courier,Courier New,Lucida Sans Typewriter,Lucida Typewriter,monospace; font-size:118px; text-anchor:middle;" transform="rotate(0, 831.38, 1464)" x="831.38" y="1464">3</text>
</g>
<g clip-path="url(#clip360)">
<text style="fill:#000000; fill-opacity:1; font-family:Courier,Courier New,Lucida Sans Typewriter,Lucida Typewriter,monospace; font-size:118px; text-anchor:middle;" transform="rotate(0, 974.551, 1464)" x="974.551" y="1464">4</text>
</g>
<g clip-path="url(#clip360)">
<text style="fill:#000000; fill-opacity:1; font-family:Courier,Courier New,Lucida Sans Typewriter,Lucida Typewriter,monospace; font-size:118px; text-anchor:middle;" transform="rotate(0, 1117.72, 1464)" x="1117.72" y="1464">5</text>
</g>
<g clip-path="url(#clip360)">
<text style="fill:#000000; fill-opacity:1; font-family:Courier,Courier New,Lucida Sans Typewriter,Lucida Typewriter,monospace; font-size:118px; text-anchor:middle;" transform="rotate(0, 1260.89, 1464)" x="1260.89" y="1464">6</text>
</g>
<g clip-path="url(#clip360)">
<text style="fill:#000000; fill-opacity:1; font-family:Courier,Courier New,Lucida Sans Typewriter,Lucida Typewriter,monospace; font-size:118px; text-anchor:middle;" transform="rotate(0, 1404.06, 1464)" x="1404.06" y="1464">7</text>
</g>
<g clip-path="url(#clip360)">
<text style="fill:#000000; fill-opacity:1; font-family:Courier,Courier New,Lucida Sans Typewriter,Lucida Typewriter,monospace; font-size:118px; text-anchor:middle;" transform="rotate(0, 1547.24, 1464)" x="1547.24" y="1464">8</text>
</g>
<g clip-path="url(#clip360)">
<text style="fill:#000000; fill-opacity:1; font-family:Courier,Courier New,Lucida Sans Typewriter,Lucida Typewriter,monospace; font-size:118px; text-anchor:middle;" transform="rotate(0, 1690.41, 1464)" x="1690.41" y="1464">9</text>
</g>
<g clip-path="url(#clip360)">
<text style="fill:#000000; fill-opacity:1; font-family:Courier,Courier New,Lucida Sans Typewriter,Lucida Typewriter,monospace; font-size:118px; text-anchor:middle;" transform="rotate(0, 1833.58, 1464)" x="1833.58" y="1464">10</text>
</g>
<g clip-path="url(#clip360)">
<text style="fill:#000000; fill-opacity:1; font-family:Courier,Courier New,Lucida Sans Typewriter,Lucida Typewriter,monospace; font-size:118px; text-anchor:middle;" transform="rotate(0, 1976.75, 1464)" x="1976.75" y="1464">11</text>
</g>
<g clip-path="url(#clip360)">
<text style="fill:#000000; fill-opacity:1; font-family:Courier,Courier New,Lucida Sans Typewriter,Lucida Typewriter,monospace; font-size:118px; text-anchor:middle;" transform="rotate(0, 2119.92, 1464)" x="2119.92" y="1464">12</text>
</g>
<g clip-path="url(#clip360)">
<text style="fill:#000000; fill-opacity:1; font-family:Courier,Courier New,Lucida Sans Typewriter,Lucida Typewriter,monospace; font-size:118px; text-anchor:middle;" transform="rotate(0, 2263.09, 1464)" x="2263.09" y="1464">13</text>
</g>
<path clip-path="url(#clip360)" d="M1045.89 1513.45 L1111.67 1513.45 L1111.67 1522.3 L1084.06 1522.3 L1084.06 1591.21 L1073.49 1591.21 L1073.49 1522.3 L1045.89 1522.3 L1045.89 1513.45 Z" fill="#000000" fill-rule="nonzero" fill-opacity="1" /><path clip-path="url(#clip360)" d="M1118.13 1532.87 L1127.71 1532.87 L1127.71 1591.21 L1118.13 1591.21 L1118.13 1532.87 M1118.13 1510.17 L1127.71 1510.17 L1127.71 1522.3 L1118.13 1522.3 L1118.13 1510.17 Z" fill="#000000" fill-rule="nonzero" fill-opacity="1" /><path clip-path="url(#clip360)" d="M1193.18 1544.07 Q1196.77 1537.61 1201.77 1534.54 Q1206.77 1531.47 1213.54 1531.47 Q1222.66 1531.47 1227.61 1537.87 Q1232.55 1544.23 1232.55 1556 L1232.55 1591.21 L1222.92 1591.21 L1222.92 1556.31 Q1222.92 1547.93 1219.95 1543.86 Q1216.98 1539.8 1210.89 1539.8 Q1203.44 1539.8 1199.12 1544.75 Q1194.79 1549.7 1194.79 1558.24 L1194.79 1591.21 L1185.16 1591.21 L1185.16 1556.31 Q1185.16 1547.87 1182.19 1543.86 Q1179.22 1539.8 1173.02 1539.8 Q1165.68 1539.8 1161.36 1544.8 Q1157.03 1549.75 1157.03 1558.24 L1157.03 1591.21 L1147.4 1591.21 L1147.4 1532.87 L1157.03 1532.87 L1157.03 1541.94 Q1160.31 1536.57 1164.9 1534.02 Q1169.48 1531.47 1175.78 1531.47 Q1182.14 1531.47 1186.56 1534.7 Q1191.04 1537.93 1193.18 1544.07 Z" fill="#000000" fill-rule="nonzero" fill-opacity="1" /><path clip-path="url(#clip360)" d="M1301.56 1559.65 L1301.56 1564.33 L1257.5 1564.33 Q1258.13 1574.23 1263.44 1579.44 Q1268.8 1584.59 1278.33 1584.59 Q1283.86 1584.59 1289.01 1583.24 Q1294.22 1581.88 1299.32 1579.18 L1299.32 1588.24 Q1294.17 1590.43 1288.75 1591.57 Q1283.33 1592.72 1277.76 1592.72 Q1263.8 1592.72 1255.63 1584.59 Q1247.5 1576.47 1247.5 1562.61 Q1247.5 1548.29 1255.21 1539.91 Q1262.97 1531.47 1276.1 1531.47 Q1287.87 1531.47 1294.69 1539.07 Q1301.56 1546.62 1301.56 1559.65 M1291.98 1556.83 Q1291.88 1548.97 1287.55 1544.28 Q1283.28 1539.59 1276.2 1539.59 Q1268.18 1539.59 1263.33 1544.12 Q1258.54 1548.66 1257.81 1556.89 L1291.98 1556.83 Z" fill="#000000" fill-rule="nonzero" fill-opacity="1" /><path clip-path="url(#clip360)" d="M1374.22 1510.27 Q1367.24 1522.25 1363.85 1533.97 Q1360.47 1545.69 1360.47 1557.72 Q1360.47 1569.75 1363.85 1581.57 Q1367.29 1593.34 1374.22 1605.27 L1365.89 1605.27 Q1358.07 1593.03 1354.17 1581.21 Q1350.31 1569.39 1350.31 1557.72 Q1350.31 1546.1 1354.17 1534.33 Q1358.02 1522.56 1365.89 1510.27 L1374.22 1510.27 Z" fill="#000000" fill-rule="nonzero" fill-opacity="1" /><path clip-path="url(#clip360)" d="M1417.08 1596.62 Q1413.02 1607.04 1409.17 1610.22 Q1405.31 1613.4 1398.85 1613.4 L1391.2 1613.4 L1391.2 1605.37 L1396.82 1605.37 Q1400.78 1605.37 1402.97 1603.5 Q1405.16 1601.62 1407.81 1594.65 L1409.53 1590.27 L1385.94 1532.87 L1396.09 1532.87 L1414.32 1578.5 L1432.55 1532.87 L1442.71 1532.87 L1417.08 1596.62 Z" fill="#000000" fill-rule="nonzero" fill-opacity="1" /><path clip-path="url(#clip360)" d="M1505.83 1559.65 L1505.83 1564.33 L1461.77 1564.33 Q1462.4 1574.23 1467.71 1579.44 Q1473.07 1584.59 1482.6 1584.59 Q1488.13 1584.59 1493.28 1583.24 Q1498.49 1581.88 1503.59 1579.18 L1503.59 1588.24 Q1498.44 1590.43 1493.02 1591.57 Q1487.6 1592.72 1482.03 1592.72 Q1468.07 1592.72 1459.9 1584.59 Q1451.77 1576.47 1451.77 1562.61 Q1451.77 1548.29 1459.48 1539.91 Q1467.24 1531.47 1480.36 1531.47 Q1492.14 1531.47 1498.96 1539.07 Q1505.83 1546.62 1505.83 1559.65 M1496.25 1556.83 Q1496.15 1548.97 1491.82 1544.28 Q1487.55 1539.59 1480.47 1539.59 Q1472.45 1539.59 1467.6 1544.12 Q1462.81 1548.66 1462.08 1556.89 L1496.25 1556.83 Z" fill="#000000" fill-rule="nonzero" fill-opacity="1" /><path clip-path="url(#clip360)" d="M1548.07 1561.89 Q1536.46 1561.89 1531.98 1564.54 Q1527.5 1567.2 1527.5 1573.6 Q1527.5 1578.71 1530.83 1581.73 Q1534.22 1584.7 1540 1584.7 Q1547.97 1584.7 1552.76 1579.07 Q1557.6 1573.4 1557.6 1564.02 L1557.6 1561.89 L1548.07 1561.89 M1567.19 1557.93 L1567.19 1591.21 L1557.6 1591.21 L1557.6 1582.35 Q1554.32 1587.67 1549.43 1590.22 Q1544.53 1592.72 1537.45 1592.72 Q1528.49 1592.72 1523.18 1587.72 Q1517.92 1582.67 1517.92 1574.23 Q1517.92 1564.39 1524.48 1559.39 Q1531.09 1554.39 1544.17 1554.39 L1557.6 1554.39 L1557.6 1553.45 Q1557.6 1546.83 1553.23 1543.24 Q1548.91 1539.59 1541.04 1539.59 Q1536.04 1539.59 1531.3 1540.79 Q1526.56 1541.99 1522.19 1544.39 L1522.19 1535.53 Q1527.45 1533.5 1532.4 1532.51 Q1537.34 1531.47 1542.03 1531.47 Q1554.69 1531.47 1560.94 1538.03 Q1567.19 1544.59 1567.19 1557.93 Z" fill="#000000" fill-rule="nonzero" fill-opacity="1" /><path clip-path="url(#clip360)" d="M1620.73 1541.83 Q1619.11 1540.9 1617.19 1540.48 Q1615.31 1540.01 1613.02 1540.01 Q1604.9 1540.01 1600.52 1545.32 Q1596.2 1550.58 1596.2 1560.48 L1596.2 1591.21 L1586.56 1591.21 L1586.56 1532.87 L1596.2 1532.87 L1596.2 1541.94 Q1599.22 1536.62 1604.06 1534.07 Q1608.91 1531.47 1615.83 1531.47 Q1616.82 1531.47 1618.02 1531.62 Q1619.22 1531.73 1620.68 1531.99 L1620.73 1541.83 Z" fill="#000000" fill-rule="nonzero" fill-opacity="1" /><path clip-path="url(#clip360)" d="M1667.97 1534.59 L1667.97 1543.66 Q1663.91 1541.57 1659.53 1540.53 Q1655.16 1539.49 1650.47 1539.49 Q1643.33 1539.49 1639.74 1541.68 Q1636.2 1543.86 1636.2 1548.24 Q1636.2 1551.57 1638.75 1553.5 Q1641.3 1555.37 1649.01 1557.09 L1652.29 1557.82 Q1662.5 1560.01 1666.77 1564.02 Q1671.09 1567.98 1671.09 1575.11 Q1671.09 1583.24 1664.63 1587.98 Q1658.23 1592.72 1646.98 1592.72 Q1642.29 1592.72 1637.19 1591.78 Q1632.13 1590.9 1626.51 1589.07 L1626.51 1579.18 Q1631.82 1581.94 1636.98 1583.34 Q1642.13 1584.7 1647.19 1584.7 Q1653.96 1584.7 1657.6 1582.41 Q1661.25 1580.06 1661.25 1575.84 Q1661.25 1571.94 1658.59 1569.85 Q1655.99 1567.77 1647.08 1565.84 L1643.75 1565.06 Q1634.84 1563.19 1630.88 1559.33 Q1626.93 1555.43 1626.93 1548.66 Q1626.93 1540.43 1632.76 1535.95 Q1638.59 1531.47 1649.32 1531.47 Q1654.63 1531.47 1659.32 1532.25 Q1664.01 1533.03 1667.97 1534.59 Z" fill="#000000" fill-rule="nonzero" fill-opacity="1" /><path clip-path="url(#clip360)" d="M1684.84 1510.27 L1693.18 1510.27 Q1700.99 1522.56 1704.84 1534.33 Q1708.75 1546.1 1708.75 1557.72 Q1708.75 1569.39 1704.84 1581.21 Q1700.99 1593.03 1693.18 1605.27 L1684.84 1605.27 Q1691.77 1593.34 1695.16 1581.57 Q1698.59 1569.75 1698.59 1557.72 Q1698.59 1545.69 1695.16 1533.97 Q1691.77 1522.25 1684.84 1510.27 Z" fill="#000000" fill-rule="nonzero" fill-opacity="1" /><polyline clip-path="url(#clip362)" style="stroke:#000000; stroke-linecap:round; stroke-linejoin:round; stroke-width:2; stroke-opacity:0.1; fill:none" points="401.881,1358.71 2352.76,1358.71 "/>
<polyline clip-path="url(#clip362)" style="stroke:#000000; stroke-linecap:round; stroke-linejoin:round; stroke-width:2; stroke-opacity:0.1; fill:none" points="401.881,1111.66 2352.76,1111.66 "/>
<polyline clip-path="url(#clip362)" style="stroke:#000000; stroke-linecap:round; stroke-linejoin:round; stroke-width:2; stroke-opacity:0.1; fill:none" points="401.881,864.614 2352.76,864.614 "/>
<polyline clip-path="url(#clip362)" style="stroke:#000000; stroke-linecap:round; stroke-linejoin:round; stroke-width:2; stroke-opacity:0.1; fill:none" points="401.881,617.566 2352.76,617.566 "/>
<polyline clip-path="url(#clip362)" style="stroke:#000000; stroke-linecap:round; stroke-linejoin:round; stroke-width:2; stroke-opacity:0.1; fill:none" points="401.881,370.519 2352.76,370.519 "/>
<polyline clip-path="url(#clip362)" style="stroke:#000000; stroke-linecap:round; stroke-linejoin:round; stroke-width:2; stroke-opacity:0.1; fill:none" points="401.881,123.472 2352.76,123.472 "/>
<polyline clip-path="url(#clip360)" style="stroke:#000000; stroke-linecap:round; stroke-linejoin:round; stroke-width:4; stroke-opacity:1; fill:none" points="401.881,1358.71 401.881,123.472 "/>
<polyline clip-path="url(#clip360)" style="stroke:#000000; stroke-linecap:round; stroke-linejoin:round; stroke-width:4; stroke-opacity:1; fill:none" points="401.881,1358.71 420.779,1358.71 "/>
<polyline clip-path="url(#clip360)" style="stroke:#000000; stroke-linecap:round; stroke-linejoin:round; stroke-width:4; stroke-opacity:1; fill:none" points="401.881,1111.66 420.779,1111.66 "/>
<polyline clip-path="url(#clip360)" style="stroke:#000000; stroke-linecap:round; stroke-linejoin:round; stroke-width:4; stroke-opacity:1; fill:none" points="401.881,864.614 420.779,864.614 "/>
<polyline clip-path="url(#clip360)" style="stroke:#000000; stroke-linecap:round; stroke-linejoin:round; stroke-width:4; stroke-opacity:1; fill:none" points="401.881,617.566 420.779,617.566 "/>
<polyline clip-path="url(#clip360)" style="stroke:#000000; stroke-linecap:round; stroke-linejoin:round; stroke-width:4; stroke-opacity:1; fill:none" points="401.881,370.519 420.779,370.519 "/>
<polyline clip-path="url(#clip360)" style="stroke:#000000; stroke-linecap:round; stroke-linejoin:round; stroke-width:4; stroke-opacity:1; fill:none" points="401.881,123.472 420.779,123.472 "/>
<g clip-path="url(#clip360)">
<text style="fill:#000000; fill-opacity:1; font-family:Courier,Courier New,Lucida Sans Typewriter,Lucida Typewriter,monospace; font-size:118px; text-anchor:middle;" transform="rotate(0, 255.191, 1393.21)" x="255.191" y="1393.21">0.0</text>
</g>
<g clip-path="url(#clip360)">
<text style="fill:#000000; fill-opacity:1; font-family:Courier,Courier New,Lucida Sans Typewriter,Lucida Typewriter,monospace; font-size:118px; text-anchor:middle;" transform="rotate(0, 255.191, 1146.16)" x="255.191" y="1146.16">0.2</text>
</g>
<g clip-path="url(#clip360)">
<text style="fill:#000000; fill-opacity:1; font-family:Courier,Courier New,Lucida Sans Typewriter,Lucida Typewriter,monospace; font-size:118px; text-anchor:middle;" transform="rotate(0, 255.191, 899.114)" x="255.191" y="899.114">0.4</text>
</g>
<g clip-path="url(#clip360)">
<text style="fill:#000000; fill-opacity:1; font-family:Courier,Courier New,Lucida Sans Typewriter,Lucida Typewriter,monospace; font-size:118px; text-anchor:middle;" transform="rotate(0, 255.191, 652.066)" x="255.191" y="652.066">0.6</text>
</g>
<g clip-path="url(#clip360)">
<text style="fill:#000000; fill-opacity:1; font-family:Courier,Courier New,Lucida Sans Typewriter,Lucida Typewriter,monospace; font-size:118px; text-anchor:middle;" transform="rotate(0, 255.191, 405.019)" x="255.191" y="405.019">0.8</text>
</g>
<g clip-path="url(#clip360)">
<text style="fill:#000000; fill-opacity:1; font-family:Courier,Courier New,Lucida Sans Typewriter,Lucida Typewriter,monospace; font-size:118px; text-anchor:middle;" transform="rotate(0, 255.191, 157.972)" x="255.191" y="157.972">1.0</text>
</g>
<path clip-path="url(#clip360)" d="M16.0579 1232.52 L45.2765 1232.52 L45.2765 1219.29 Q45.2765 1211.95 41.4745 1207.94 Q37.6724 1203.93 30.6412 1203.93 Q23.6621 1203.93 19.86 1207.94 Q16.0579 1211.95 16.0579 1219.29 L16.0579 1232.52 M7.41216 1243.04 L7.41216 1219.29 Q7.41216 1206.22 13.3496 1199.55 Q19.235 1192.83 30.6412 1192.83 Q42.1516 1192.83 48.0369 1199.55 Q53.9223 1206.22 53.9223 1219.29 L53.9223 1232.52 L85.1722 1232.52 L85.1722 1243.04 L7.41216 1243.04 Z" fill="#000000" fill-rule="nonzero" fill-opacity="1" /><path clip-path="url(#clip360)" d="M33.5579 1160.33 Q33.5579 1168.04 39.5995 1172.52 Q45.589 1177 56.0577 1177 Q66.5264 1177 72.5681 1172.57 Q78.5576 1168.09 78.5576 1160.33 Q78.5576 1152.68 72.516 1148.2 Q66.4743 1143.72 56.0577 1143.72 Q45.6932 1143.72 39.6516 1148.2 Q33.5579 1152.68 33.5579 1160.33 M25.4329 1160.33 Q25.4329 1147.83 33.5579 1140.7 Q41.6828 1133.56 56.0577 1133.56 Q70.3806 1133.56 78.5576 1140.7 Q86.6826 1147.83 86.6826 1160.33 Q86.6826 1172.88 78.5576 1180.02 Q70.3806 1187.1 56.0577 1187.1 Q41.6828 1187.1 33.5579 1180.02 Q25.4329 1172.88 25.4329 1160.33 Z" fill="#000000" fill-rule="nonzero" fill-opacity="1" /><path clip-path="url(#clip360)" d="M76.4222 1108.41 L107.36 1108.41 L107.36 1118.04 L26.8391 1118.04 L26.8391 1108.41 L35.6933 1108.41 Q30.485 1105.38 27.985 1100.8 Q25.4329 1096.17 25.4329 1089.76 Q25.4329 1079.14 33.8703 1072.52 Q42.3078 1065.85 56.0577 1065.85 Q69.8077 1065.85 78.2451 1072.52 Q86.6826 1079.14 86.6826 1089.76 Q86.6826 1096.17 84.1826 1100.8 Q81.6305 1105.38 76.4222 1108.41 M56.0577 1075.8 Q45.4849 1075.8 39.4953 1080.18 Q33.4537 1084.5 33.4537 1092.1 Q33.4537 1099.71 39.4953 1104.08 Q45.4849 1108.41 56.0577 1108.41 Q66.6306 1108.41 72.6722 1104.08 Q78.6618 1099.71 78.6618 1092.1 Q78.6618 1084.5 72.6722 1080.18 Q66.6306 1075.8 56.0577 1075.8 Z" fill="#000000" fill-rule="nonzero" fill-opacity="1" /><path clip-path="url(#clip360)" d="M62.1514 1050.96 L26.8391 1050.96 L26.8391 1041.37 L61.7869 1041.37 Q70.0681 1041.37 74.2347 1038.15 Q78.3493 1034.92 78.3493 1028.46 Q78.3493 1020.7 73.4014 1016.22 Q68.4535 1011.69 59.9119 1011.69 L26.8391 1011.69 L26.8391 1002.1 L85.1722 1002.1 L85.1722 1011.69 L76.2139 1011.69 Q81.5263 1015.18 84.1305 1019.81 Q86.6826 1024.4 86.6826 1030.49 Q86.6826 1040.54 80.4326 1045.75 Q74.1826 1050.96 62.1514 1050.96 M25.4329 1026.84 L25.4329 1026.84 Z" fill="#000000" fill-rule="nonzero" fill-opacity="1" /><path clip-path="url(#clip360)" d="M4.13093 982.365 L4.13093 972.781 L85.1722 972.781 L85.1722 982.365 L4.13093 982.365 Z" fill="#000000" fill-rule="nonzero" fill-opacity="1" /><path clip-path="url(#clip360)" d="M55.8494 926.219 Q55.8494 937.834 58.5056 942.313 Q61.1619 946.792 67.5681 946.792 Q72.6722 946.792 75.693 943.459 Q78.6618 940.073 78.6618 934.292 Q78.6618 926.323 73.0368 921.532 Q67.3598 916.688 57.9848 916.688 L55.8494 916.688 L55.8494 926.219 M51.8911 907.105 L85.1722 907.105 L85.1722 916.688 L76.318 916.688 Q81.6305 919.969 84.1826 924.865 Q86.6826 929.761 86.6826 936.844 Q86.6826 945.802 81.6826 951.115 Q76.6305 956.375 68.1931 956.375 Q58.3494 956.375 53.3494 949.813 Q48.3494 943.198 48.3494 930.125 L48.3494 916.688 L47.4119 916.688 Q40.7974 916.688 37.2037 921.063 Q33.5579 925.386 33.5579 933.25 Q33.5579 938.25 34.7558 942.99 Q35.9537 947.729 38.3495 952.104 L29.4954 952.104 Q27.4641 946.844 26.4746 941.896 Q25.4329 936.948 25.4329 932.261 Q25.4329 919.605 31.9954 913.355 Q38.5578 907.105 51.8911 907.105 Z" fill="#000000" fill-rule="nonzero" fill-opacity="1" /><path clip-path="url(#clip360)" d="M10.2767 877.886 L26.8391 877.886 L26.8391 858.147 L34.287 858.147 L34.287 877.886 L65.9535 877.886 Q73.0889 877.886 75.1201 875.959 Q77.1514 873.98 77.1514 867.99 L77.1514 858.147 L85.1722 858.147 L85.1722 867.99 Q85.1722 879.084 81.0576 883.303 Q76.891 887.521 65.9535 887.521 L34.287 887.521 L34.287 894.553 L26.8391 894.553 L26.8391 887.521 L10.2767 887.521 L10.2767 877.886 Z" fill="#000000" fill-rule="nonzero" fill-opacity="1" /><path clip-path="url(#clip360)" d="M26.8391 845.543 L26.8391 835.959 L85.1722 835.959 L85.1722 845.543 L26.8391 845.543 M4.13093 845.543 L4.13093 835.959 L16.2663 835.959 L16.2663 845.543 L4.13093 845.543 Z" fill="#000000" fill-rule="nonzero" fill-opacity="1" /><path clip-path="url(#clip360)" d="M33.5579 793.303 Q33.5579 801.012 39.5995 805.491 Q45.589 809.97 56.0577 809.97 Q66.5264 809.97 72.5681 805.543 Q78.5576 801.064 78.5576 793.303 Q78.5576 785.647 72.516 781.168 Q66.4743 776.689 56.0577 776.689 Q45.6932 776.689 39.6516 781.168 Q33.5579 785.647 33.5579 793.303 M25.4329 793.303 Q25.4329 780.803 33.5579 773.668 Q41.6828 766.533 56.0577 766.533 Q70.3806 766.533 78.5576 773.668 Q86.6826 780.803 86.6826 793.303 Q86.6826 805.855 78.5576 812.991 Q70.3806 820.074 56.0577 820.074 Q41.6828 820.074 33.5579 812.991 Q25.4329 805.855 25.4329 793.303 Z" fill="#000000" fill-rule="nonzero" fill-opacity="1" /><path clip-path="url(#clip360)" d="M49.964 702.158 L85.1722 702.158 L85.1722 711.741 L50.2765 711.741 Q41.9953 711.741 37.8807 714.97 Q33.7662 718.199 33.7662 724.658 Q33.7662 732.418 38.7141 736.897 Q43.662 741.376 52.2036 741.376 L85.1722 741.376 L85.1722 751.012 L26.8391 751.012 L26.8391 741.376 L35.9016 741.376 Q30.6412 737.939 28.037 733.304 Q25.4329 728.616 25.4329 722.522 Q25.4329 712.47 31.6829 707.314 Q37.8807 702.158 49.964 702.158 Z" fill="#000000" fill-rule="nonzero" fill-opacity="1" /><path clip-path="url(#clip360)" d="M9.96423 602.106 L20.2246 602.106 Q17.36 608.096 15.9538 613.408 Q14.5475 618.721 14.5475 623.669 Q14.5475 632.262 17.8809 636.95 Q21.2142 641.585 27.36 641.585 Q32.5162 641.585 35.1724 638.512 Q37.7766 635.387 39.3912 626.742 L40.6932 620.387 Q42.9328 608.617 48.6099 603.044 Q54.2348 597.419 63.7139 597.419 Q75.016 597.419 80.8493 605.023 Q86.6826 612.575 86.6826 627.21 Q86.6826 632.731 85.4326 638.981 Q84.1826 645.179 81.7347 651.846 L70.9014 651.846 Q74.4951 645.439 76.318 639.294 Q78.1409 633.148 78.1409 627.21 Q78.1409 618.2 74.5993 613.304 Q71.0576 608.408 64.4952 608.408 Q58.766 608.408 55.5369 611.95 Q52.3078 615.44 50.6932 623.46 L49.4432 629.867 Q47.0994 641.637 42.0995 646.898 Q37.0995 652.158 28.1933 652.158 Q17.8809 652.158 11.9434 644.919 Q6.00592 637.627 6.00592 624.867 Q6.00592 619.398 6.99549 613.721 Q7.98507 608.044 9.96423 602.106 Z" fill="#000000" fill-rule="nonzero" fill-opacity="1" /><path clip-path="url(#clip360)" d="M62.1514 582.419 L26.8391 582.419 L26.8391 572.836 L61.7869 572.836 Q70.0681 572.836 74.2347 569.607 Q78.3493 566.377 78.3493 559.919 Q78.3493 552.159 73.4014 547.68 Q68.4535 543.148 59.9119 543.148 L26.8391 543.148 L26.8391 533.565 L85.1722 533.565 L85.1722 543.148 L76.2139 543.148 Q81.5263 546.638 84.1305 551.273 Q86.6826 555.857 86.6826 561.95 Q86.6826 572.002 80.4326 577.211 Q74.1826 582.419 62.1514 582.419 M25.4329 558.304 L25.4329 558.304 Z" fill="#000000" fill-rule="nonzero" fill-opacity="1" /><path clip-path="url(#clip360)" d="M35.7974 480.024 Q34.8599 481.638 34.4433 483.565 Q33.9745 485.44 33.9745 487.732 Q33.9745 495.857 39.287 500.232 Q44.5474 504.555 54.4432 504.555 L85.1722 504.555 L85.1722 514.19 L26.8391 514.19 L26.8391 504.555 L35.9016 504.555 Q30.5891 501.534 28.037 496.69 Q25.4329 491.847 25.4329 484.919 Q25.4329 483.93 25.5891 482.732 Q25.6933 481.534 25.9537 480.076 L35.7974 480.024 Z" fill="#000000" fill-rule="nonzero" fill-opacity="1" /><path clip-path="url(#clip360)" d="M26.8391 476.847 L26.8391 466.69 L75.7972 448.461 L26.8391 430.232 L26.8391 420.076 L85.1722 441.951 L85.1722 454.972 L26.8391 476.847 Z" fill="#000000" fill-rule="nonzero" fill-opacity="1" /><path clip-path="url(#clip360)" d="M26.8391 406.847 L26.8391 397.264 L85.1722 397.264 L85.1722 406.847 L26.8391 406.847 M4.13093 406.847 L4.13093 397.264 L16.2663 397.264 L16.2663 406.847 L4.13093 406.847 Z" fill="#000000" fill-rule="nonzero" fill-opacity="1" /><path clip-path="url(#clip360)" d="M26.8391 384.087 L26.8391 373.93 L75.7972 355.701 L26.8391 337.472 L26.8391 327.316 L85.1722 349.191 L85.1722 362.212 L26.8391 384.087 Z" fill="#000000" fill-rule="nonzero" fill-opacity="1" /><path clip-path="url(#clip360)" d="M55.8494 287.577 Q55.8494 299.191 58.5056 303.67 Q61.1619 308.15 67.5681 308.15 Q72.6722 308.15 75.693 304.816 Q78.6618 301.431 78.6618 295.65 Q78.6618 287.681 73.0368 282.889 Q67.3598 278.046 57.9848 278.046 L55.8494 278.046 L55.8494 287.577 M51.8911 268.462 L85.1722 268.462 L85.1722 278.046 L76.318 278.046 Q81.6305 281.327 84.1826 286.223 Q86.6826 291.118 86.6826 298.202 Q86.6826 307.16 81.6826 312.472 Q76.6305 317.733 68.1931 317.733 Q58.3494 317.733 53.3494 311.17 Q48.3494 304.556 48.3494 291.483 L48.3494 278.046 L47.4119 278.046 Q40.7974 278.046 37.2037 282.421 Q33.5579 286.743 33.5579 294.608 Q33.5579 299.608 34.7558 304.348 Q35.9537 309.087 38.3495 313.462 L29.4954 313.462 Q27.4641 308.202 26.4746 303.254 Q25.4329 298.306 25.4329 293.618 Q25.4329 280.962 31.9954 274.712 Q38.5578 268.462 51.8911 268.462 Z" fill="#000000" fill-rule="nonzero" fill-opacity="1" /><path clip-path="url(#clip360)" d="M4.13093 248.723 L4.13093 239.14 L85.1722 239.14 L85.1722 248.723 L4.13093 248.723 Z" fill="#000000" fill-rule="nonzero" fill-opacity="1" /><path clip-path="url(#clip360)" d="M1163.88 43.6931 L1163.88 65.8515 L1177 65.8515 Q1183.6 65.8515 1186.76 63.1374 Q1189.96 60.3828 1189.96 54.752 Q1189.96 49.0808 1186.76 46.4072 Q1183.6 43.6931 1177 43.6931 L1163.88 43.6931 M1163.88 18.8205 L1163.88 37.0496 L1175.99 37.0496 Q1181.98 37.0496 1184.9 34.8216 Q1187.86 32.5531 1187.86 27.935 Q1187.86 23.3575 1184.9 21.089 Q1181.98 18.8205 1175.99 18.8205 L1163.88 18.8205 M1155.69 12.096 L1176.6 12.096 Q1185.95 12.096 1191.02 15.9849 Q1196.08 19.8737 1196.08 27.0438 Q1196.08 32.5936 1193.49 35.8748 Q1190.9 39.156 1185.87 39.9662 Q1191.91 41.2625 1195.23 45.3944 Q1198.59 49.4858 1198.59 55.6432 Q1198.59 63.745 1193.08 68.1605 Q1187.57 72.576 1177.41 72.576 L1155.69 72.576 L1155.69 12.096 Z" fill="#000000" fill-rule="nonzero" fill-opacity="1" /><path clip-path="url(#clip360)" d="M1251.09 48.0275 L1251.09 51.6733 L1216.82 51.6733 Q1217.31 59.3701 1221.44 63.421 Q1225.61 67.4314 1233.03 67.4314 Q1237.32 67.4314 1241.33 66.3781 Q1245.38 65.3249 1249.35 63.2184 L1249.35 70.267 Q1245.34 71.9684 1241.13 72.8596 Q1236.91 73.7508 1232.58 73.7508 Q1221.72 73.7508 1215.36 67.4314 Q1209.04 61.1119 1209.04 50.3365 Q1209.04 39.1965 1215.04 32.6746 Q1221.08 26.1121 1231.28 26.1121 Q1240.44 26.1121 1245.75 32.0264 Q1251.09 37.9003 1251.09 48.0275 M1243.64 45.84 Q1243.56 39.7232 1240.2 36.0774 Q1236.87 32.4315 1231.36 32.4315 Q1225.13 32.4315 1221.36 35.9558 Q1217.63 39.4801 1217.06 45.8805 L1243.64 45.84 Z" fill="#000000" fill-rule="nonzero" fill-opacity="1" /><path clip-path="url(#clip360)" d="M1292.25 28.5427 L1292.25 35.5912 Q1289.09 33.9709 1285.69 33.1607 Q1282.28 32.3505 1278.64 32.3505 Q1273.09 32.3505 1270.29 34.0519 Q1267.54 35.7533 1267.54 39.156 Q1267.54 41.7486 1269.52 43.2475 Q1271.51 44.7058 1277.5 46.0426 L1280.06 46.6097 Q1288 48.3111 1291.32 51.4303 Q1294.68 54.509 1294.68 60.0587 Q1294.68 66.3781 1289.66 70.0644 Q1284.67 73.7508 1275.92 73.7508 Q1272.28 73.7508 1268.31 73.0216 Q1264.38 72.3329 1260 70.9151 L1260 63.2184 Q1264.14 65.3654 1268.15 66.4591 Q1272.16 67.5124 1276.09 67.5124 Q1281.35 67.5124 1284.19 65.73 Q1287.02 63.9071 1287.02 60.6258 Q1287.02 57.5877 1284.96 55.9673 Q1282.93 54.3469 1276.01 52.8481 L1273.41 52.2405 Q1266.49 50.7821 1263.41 47.7845 Q1260.33 44.7463 1260.33 39.4801 Q1260.33 33.0797 1264.87 29.5959 Q1269.4 26.1121 1277.75 26.1121 Q1281.88 26.1121 1285.52 26.7198 Q1289.17 27.3274 1292.25 28.5427 Z" fill="#000000" fill-rule="nonzero" fill-opacity="1" /><path clip-path="url(#clip360)" d="M1313.92 14.324 L1313.92 27.2059 L1329.27 27.2059 L1329.27 32.9987 L1313.92 32.9987 L1313.92 57.6282 Q1313.92 63.1779 1315.42 64.7578 Q1316.96 66.3376 1321.62 66.3376 L1329.27 66.3376 L1329.27 72.576 L1321.62 72.576 Q1312.99 72.576 1309.71 69.3758 Q1306.43 66.1351 1306.43 57.6282 L1306.43 32.9987 L1300.96 32.9987 L1300.96 27.2059 L1306.43 27.2059 L1306.43 14.324 L1313.92 14.324 Z" fill="#000000" fill-rule="nonzero" fill-opacity="1" /><path clip-path="url(#clip360)" d="M1365.77 12.096 L1377.97 12.096 L1393.4 53.2532 L1408.92 12.096 L1421.11 12.096 L1421.11 72.576 L1413.13 72.576 L1413.13 19.4686 L1397.53 60.9499 L1389.31 60.9499 L1373.71 19.4686 L1373.71 72.576 L1365.77 72.576 L1365.77 12.096 Z" fill="#000000" fill-rule="nonzero" fill-opacity="1" /><path clip-path="url(#clip360)" d="M1454.61 32.4315 Q1448.61 32.4315 1445.13 37.1306 Q1441.65 41.7891 1441.65 49.9314 Q1441.65 58.0738 1445.09 62.7728 Q1448.57 67.4314 1454.61 67.4314 Q1460.56 67.4314 1464.05 62.7323 Q1467.53 58.0333 1467.53 49.9314 Q1467.53 41.8701 1464.05 37.1711 Q1460.56 32.4315 1454.61 32.4315 M1454.61 26.1121 Q1464.33 26.1121 1469.88 32.4315 Q1475.43 38.7509 1475.43 49.9314 Q1475.43 61.0714 1469.88 67.4314 Q1464.33 73.7508 1454.61 73.7508 Q1444.85 73.7508 1439.3 67.4314 Q1433.79 61.0714 1433.79 49.9314 Q1433.79 38.7509 1439.3 32.4315 Q1444.85 26.1121 1454.61 26.1121 Z" fill="#000000" fill-rule="nonzero" fill-opacity="1" /><path clip-path="url(#clip360)" d="M1517.64 34.0924 L1517.64 9.54393 L1525.1 9.54393 L1525.1 72.576 L1517.64 72.576 L1517.64 65.7705 Q1515.29 69.8214 1511.69 71.8063 Q1508.12 73.7508 1503.1 73.7508 Q1494.88 73.7508 1489.69 67.1883 Q1484.55 60.6258 1484.55 49.9314 Q1484.55 39.2371 1489.69 32.6746 Q1494.88 26.1121 1503.1 26.1121 Q1508.12 26.1121 1511.69 28.0971 Q1515.29 30.0415 1517.64 34.0924 M1492.24 49.9314 Q1492.24 58.1548 1495.6 62.8538 Q1499.01 67.5124 1504.92 67.5124 Q1510.84 67.5124 1514.24 62.8538 Q1517.64 58.1548 1517.64 49.9314 Q1517.64 41.7081 1514.24 37.0496 Q1510.84 32.3505 1504.92 32.3505 Q1499.01 32.3505 1495.6 37.0496 Q1492.24 41.7081 1492.24 49.9314 Z" fill="#000000" fill-rule="nonzero" fill-opacity="1" /><path clip-path="url(#clip360)" d="M1579.26 48.0275 L1579.26 51.6733 L1544.99 51.6733 Q1545.47 59.3701 1549.6 63.421 Q1553.78 67.4314 1561.19 67.4314 Q1565.48 67.4314 1569.49 66.3781 Q1573.54 65.3249 1577.51 63.2184 L1577.51 70.267 Q1573.5 71.9684 1569.29 72.8596 Q1565.08 73.7508 1560.74 73.7508 Q1549.89 73.7508 1543.53 67.4314 Q1537.21 61.1119 1537.21 50.3365 Q1537.21 39.1965 1543.2 32.6746 Q1549.24 26.1121 1559.45 26.1121 Q1568.6 26.1121 1573.91 32.0264 Q1579.26 37.9003 1579.26 48.0275 M1571.8 45.84 Q1571.72 39.7232 1568.36 36.0774 Q1565.04 32.4315 1559.53 32.4315 Q1553.29 32.4315 1549.52 35.9558 Q1545.8 39.4801 1545.23 45.8805 L1571.8 45.84 Z" fill="#000000" fill-rule="nonzero" fill-opacity="1" /><path clip-path="url(#clip360)" d="M1591.49 9.54393 L1598.94 9.54393 L1598.94 72.576 L1591.49 72.576 L1591.49 9.54393 Z" fill="#000000" fill-rule="nonzero" fill-opacity="1" /><polyline clip-path="url(#clip362)" style="stroke:#808080; stroke-linecap:round; stroke-linejoin:round; stroke-width:12; stroke-opacity:1; fill:none" points="402.259,154.264 402.651,180.319 403.043,200.452 403.435,214.664 403.827,227.691 404.219,243.087 404.61,259.668 405.002,269.142 405.394,277.432 405.786,290.46 406.178,299.934 406.57,302.303 406.962,307.04 407.354,314.146 407.746,321.252 408.138,328.358 408.53,333.095 408.922,334.279 409.314,339.017 409.706,342.57 410.098,343.754 410.49,346.122 410.882,350.86 411.274,360.334 411.666,362.703 412.058,367.44 412.45,369.809 412.842,375.737 413.234,376.923 413.626,381.666 414.018,393.523 414.41,395.895 414.802,399.452 415.194,404.195 415.586,406.566 415.978,408.938 416.37,414.866 416.762,418.428 417.154,423.177 417.546,427.926 417.938,431.488 418.33,432.675 418.722,437.424 419.114,438.611 419.506,442.173 419.898,445.734 420.29,448.109 420.682,451.67 421.074,456.419 421.858,458.794 422.25,459.981 422.642,463.543 423.034,465.917 423.426,471.853 423.818,473.04 424.21,480.164 424.994,481.351 425.385,486.1 425.777,487.287 426.169,488.474 426.561,489.661 426.953,494.41 427.345,497.972 427.737,501.534 428.129,503.908 428.521,508.657 428.913,509.844 429.305,514.593 429.697,516.968 430.089,519.342 430.481,521.716 430.873,524.091 431.265,527.653 431.657,534.776 432.049,537.15 432.833,538.338 433.225,541.899 433.617,549.023 434.009,553.771 434.793,556.146 435.185,559.707 435.577,564.456 435.969,569.205 436.361,570.392 436.753,573.954 437.145,589.388 437.537,591.762 437.929,594.137 438.321,598.886 438.713,602.447 439.105,603.635 439.497,607.196 439.889,609.571 440.281,615.507 440.673,617.881 441.457,619.069 441.849,620.256 442.241,620.256 442.633,622.634 443.025,626.201 443.417,629.769 443.809,629.769 444.201,630.96 444.593,633.342 445.768,635.724 446.16,638.106 446.552,639.297 446.944,640.489 447.728,641.68 448.12,644.062 448.904,647.641 449.296,648.834 449.688,650.027 450.08,651.22 450.472,652.415 450.864,653.612 451.648,654.809 452.04,656.007 452.432,657.204 452.824,658.401 453.216,659.598 453.608,663.189 454,664.386 454.392,665.583 454.784,667.978 455.568,669.175 455.96,670.372 457.136,672.766 457.528,675.16 458.312,678.758 458.704,679.957 459.096,681.156 459.88,683.555 461.056,685.957 461.448,687.159 462.232,690.763 463.016,691.964 463.408,693.165 464.192,695.568 464.976,700.373 465.368,701.575 465.76,702.776 466.152,702.776 466.543,706.393 467.719,707.599 468.111,708.805 468.503,710.011 468.895,712.422 469.287,713.628 470.071,714.834 470.463,716.039 470.855,717.245 471.247,719.657 471.639,720.863 472.031,722.068 472.423,723.274 472.815,724.48 473.207,726.891 473.599,728.097 473.991,729.303 474.383,729.303 474.775,730.511 475.559,732.932 475.951,735.352 476.343,737.773 477.519,738.984 477.911,741.404 478.303,742.617 478.695,748.681 479.479,749.894 480.655,751.107 482.223,754.745 482.615,754.745 483.007,758.391 483.791,758.391 484.183,760.826 484.575,763.261 484.967,763.261 485.359,765.702 485.751,766.922 486.143,770.582 486.535,771.803 487.318,773.023 487.71,774.243 488.102,775.466 489.278,777.911 489.67,780.357 490.062,782.807 492.806,786.483 493.59,788.934 493.982,790.159 494.374,792.61 494.766,793.835 495.55,795.06 495.942,795.06 496.334,796.288 497.118,797.516 498.294,798.744 498.686,802.428 499.078,802.428 499.47,804.89 499.862,806.121 500.254,807.351 501.43,808.582 501.822,809.813 502.214,811.043 502.606,812.274 504.174,815.966 504.958,817.197 505.35,818.428 507.31,819.658 507.701,819.658 508.485,820.892 510.445,822.128 511.229,823.365 511.621,824.601 512.013,825.837 513.581,827.074 513.973,829.546 516.717,829.546 517.109,832.025 517.893,833.264 518.285,834.503 518.677,835.743 519.461,839.46 520.245,840.7 520.637,843.178 523.381,844.417 523.773,845.657 524.165,846.896 524.557,848.135 524.949,849.377 526.125,851.862 526.517,854.347 527.301,855.589 528.868,858.073 529.26,860.558 529.652,861.8 530.436,864.285 531.22,865.527 531.612,866.769 532.396,866.769 533.18,868.015 533.964,870.505 534.356,871.751 534.748,874.248 535.14,877.994 535.532,879.243 535.924,880.491 537.1,884.237 537.884,885.489 539.844,886.741 540.236,889.245 541.412,890.496 541.804,891.748 542.588,893 542.98,895.504 543.372,898.008 543.764,899.26 544.156,900.512 544.548,901.764 544.94,903.015 545.724,904.267 546.116,905.519 546.9,906.775 547.292,908.03 547.684,909.285 548.468,911.796 548.859,913.051 549.251,914.307 549.643,915.562 551.995,918.08 552.779,920.598 553.563,923.116 554.347,925.634 554.739,925.634 555.915,926.896 557.483,926.896 559.051,930.695 559.443,931.962 560.227,933.228 560.619,934.494 561.011,940.826 561.403,942.092 561.795,943.358 562.187,944.625 563.755,945.891 564.147,948.424 564.931,950.956 565.323,952.223 568.067,953.489 569.242,954.755 569.634,956.021 570.026,957.288 570.418,959.82 573.162,959.82 574.338,962.361 575.906,963.631 576.69,964.902 577.082,967.442 577.474,968.713 577.866,969.983 578.258,971.253 578.65,972.524 579.434,973.794 581.786,975.064 582.57,976.335 582.962,976.335 583.354,978.884 583.746,980.159 584.53,981.433 584.922,982.708 585.314,983.982 585.706,987.806 586.49,990.355 588.058,991.63 588.45,992.904 588.842,995.453 589.626,998.003 590.409,999.277 591.585,999.277 591.977,999.277 593.153,999.277 593.545,1000.57 594.721,1001.85 595.113,1003.14 596.681,1004.43 597.465,1007.01 599.033,1007.01 599.817,1007.01 602.169,1008.3 602.561,1009.6 604.129,1010.9 604.521,1012.2 604.913,1013.5 606.481,1014.79 606.873,1016.09 608.441,1017.39 611.576,1018.69 611.968,1021.28 612.36,1022.58 613.536,1023.88 614.712,1025.18 617.848,1026.47 619.416,1027.77 619.808,1029.07 621.376,1030.37 622.16,1031.66 622.552,1034.26 622.944,1035.56 623.336,1035.56 624.512,1035.56 626.08,1039.48 626.864,1040.79 628.04,1042.1 630,1043.41 630.784,1044.72 631.959,1046.02 632.743,1046.02 634.703,1047.34 635.095,1048.65 636.663,1049.97 637.839,1049.97 641.367,1052.6 641.759,1053.92 642.543,1053.92 646.855,1055.25 647.639,1056.57 648.031,1057.9 648.815,1057.9 649.207,1059.23 650.775,1060.56 652.342,1061.89 653.126,1064.55 655.478,1064.55 657.83,1065.89 658.614,1068.57 660.182,1069.9 661.358,1069.9 661.75,1071.25 664.102,1072.59 665.278,1073.93 669.59,1076.62 669.982,1077.96 670.374,1079.31 671.942,1080.65 672.333,1080.65 673.117,1080.65 675.077,1082.01 677.821,1084.72 678.997,1084.72 681.741,1087.44 682.525,1088.81 682.917,1090.17 686.445,1091.53 686.837,1092.9 689.973,1094.26 690.365,1095.62 691.149,1095.62 692.325,1096.99 696.244,1098.36 697.028,1099.73 702.516,1101.1 702.908,1103.84 703.692,1105.22 705.652,1105.22 706.828,1106.59 707.612,1107.97 711.532,1107.97 713.1,1109.36 716.627,1110.74 724.467,1112.13 727.603,1113.51 730.347,1114.9 732.699,1114.9 737.01,1116.29 737.402,1117.68 737.794,1119.08 743.282,1120.49 747.986,1121.89 750.73,1121.89 751.514,1124.71 754.258,1126.12 755.433,1126.12 756.217,1126.12 759.353,1126.12 762.097,1126.12 763.665,1127.56 767.977,1129.01 769.545,1129.01 771.505,1129.01 775.424,1130.47 777.776,1130.47 782.48,1130.47 789.144,1130.47 791.496,1131.96 798.551,1131.96 799.335,1133.46 802.079,1133.46 805.999,1134.97 807.959,1136.49 810.703,1136.49 813.839,1138.01 814.623,1139.53 817.366,1141.05 821.286,1142.57 829.91,1144.1 838.925,1145.62 841.277,1147.14 843.237,1148.66 847.549,1150.18 853.037,1151.71 862.052,1153.23 865.58,1154.75 877.34,1154.75 887.139,1154.75 888.707,1154.75 891.451,1157.86 891.843,1160.98 894.587,1162.53 897.331,1164.09 898.115,1164.09 909.482,1164.09 911.834,1164.09 918.498,1164.09 921.241,1164.09 934.569,1164.09 939.273,1164.09 944.368,1165.76 972.591,1167.42 973.375,1167.42 982.39,1167.42 983.958,1169.11 987.094,1169.11 987.486,1170.82 1007.09,1172.53 1013.36,1172.53 1016.49,1174.25 1017.67,1175.98 1020.8,1177.7 1021.59,1177.7 1052.56,1177.7 1056.08,1177.7 1065.88,1177.7 1072.55,1177.7 1073.33,1177.7 1080.39,1177.7 1082.74,1179.57 1084.31,1179.57 1087.83,1181.45 1092.54,1183.34 1107.04,1183.34 1107.43,1185.24 1111.74,1187.15 1119.58,1187.15 1133.7,1189.08 1147.81,1189.08 1149.77,1189.08 1163.49,1189.08 1166.62,1189.08 1170.54,1189.08 1172.11,1191.12 1172.89,1193.16 1189.75,1195.21 1190.14,1195.21 1192.1,1195.21 1195.63,1195.21 1201.9,1195.21 1203.86,1195.21 1212.09,1197.39 1216.01,1197.39 1221.89,1199.6 1236.39,1199.6 1243.45,1201.84 1262.66,1201.84 1274.42,1204.11 1280.3,1204.11 1286.57,1206.42 1303.03,1208.73 1330.08,1208.73 1336.35,1208.73 1340.27,1208.73 1350.07,1208.73 1350.46,1208.73 1358.69,1211.23 1365.36,1213.73 1375.16,1213.73 1388.48,1213.73 1389.66,1216.32 1391.23,1216.32 1426.5,1219 1428.86,1219 1442.18,1219 1461,1219 1468.84,1219 1471.58,1219 1472.76,1221.97 1482.17,1221.97 1488.44,1221.97 1505.29,1221.97 1531.95,1221.97 1546.06,1221.97 1550.37,1221.97 1587.61,1221.97 1591.14,1221.97 1594.66,1221.97 1603.29,1221.97 1639.74,1221.97 1659.34,1221.97 1680.51,1221.97 1736.95,1221.97 1737.35,1226.25 1762.04,1226.25 1765.96,1226.25 1780.46,1226.25 1819.66,1226.25 1830.64,1226.25 1842.4,1226.25 1865.13,1226.25 1878.07,1226.25 1899.63,1232.01 1937.65,1232.01 1946.66,1232.01 1951.37,1232.01 1976.45,1232.01 2018,1232.01 2021.92,1232.01 2052.5,1232.01 2085.82,1232.01 2098.36,1232.01 2101.89,1232.01 2124.23,1232.01 2145.4,1232.01 2162.25,1232.01 2203.41,1232.01 2224.58,1232.01 2238.69,1250.11 2261.03,1250.11 2271.22,1250.11 2281.42,1250.11 2331.2,1250.11 2348.05,1304.41 2352.76,1304.41 "/>
<polyline clip-path="url(#clip362)" style="stroke:#000000; stroke-linecap:round; stroke-linejoin:round; stroke-width:12; stroke-opacity:1; fill:none" points="401.881,124.762 402.675,162.403 403.469,189.568 404.262,212.836 405.056,233.631 405.85,252.612 406.644,270.166 407.438,286.545 408.232,301.93 409.819,330.227 411.407,355.829 412.201,367.785 412.995,379.246 413.788,390.253 414.582,400.842 416.417,423.888 418.252,445.184 420.087,464.974 421.922,483.455 423.757,500.783 425.592,517.089 427.427,532.481 429.262,547.049 432.932,574.019 436.602,598.504 440.273,620.892 443.943,641.484 447.613,660.523 451.283,678.204 454.953,694.69 458.623,710.114 462.293,724.592 465.963,738.218 469.633,751.077 473.303,763.24 480.643,785.72 487.983,806.07 495.323,824.612 502.663,841.604 510.003,857.252 517.344,871.727 524.684,885.169 532.024,897.697 540.846,911.682 549.668,924.635 558.49,936.676 567.312,947.907 584.957,968.272 602.601,986.287 617.519,999.995 632.437,1012.52 647.355,1024.02 662.273,1034.62 694.684,1055.07 727.094,1072.64 756.974,1086.81 786.853,1099.41 818.888,1111.46 850.922,1122.25 888.036,1133.45 925.151,1143.46 991.117,1158.92 1048.96,1170.49 1112.03,1181.46 1175.47,1191.09 1245.62,1200.43 1312.36,1208.28 1381.75,1215.53 1440.17,1221.05 1511.49,1227.16 1576.82,1232.23 1637.16,1236.54 1698.28,1240.57 1766.78,1244.75 1828.85,1248.25 1899.92,1251.97 1965.73,1255.17 2030.6,1258.12 2093.59,1260.8 2158.16,1263.39 2228.9,1266.06 2331.67,1269.64 2352.76,1270.33 "/>
</svg>
